<svg width="393" height="852" viewBox="0 0 393 852" fill="none" xmlns="http://www.w3.org/2000/svg">
<g clip-path="url(#clip0_8_61)">
<rect width="393" height="852" fill="white"/>
<path d="M331 15.6998C333.612 15.7 336.124 16.7094 338.017 18.5194C338.159 18.6592 338.387 18.6574 338.527 18.5155L339.89 17.1324C339.961 17.0604 340.001 16.9629 340 16.8614C339.999 16.7599 339.959 16.6629 339.887 16.5917C334.919 11.8028 327.081 11.8028 322.113 16.5917C322.042 16.6628 322.001 16.7599 322 16.8613C321.999 16.9628 322.039 17.0603 322.11 17.1324L323.473 18.5155C323.613 18.6576 323.841 18.6594 323.984 18.5194C325.877 16.7092 328.389 15.6998 331 15.6998ZM331 20.1997C332.435 20.1996 333.819 20.7361 334.883 21.7049C335.027 21.8424 335.253 21.8395 335.394 21.6982L336.754 20.3151C336.826 20.2426 336.866 20.1441 336.865 20.0419C336.864 19.9396 336.822 19.842 336.749 19.7709C333.51 16.7403 328.494 16.7403 325.255 19.7709C325.182 19.842 325.14 19.9396 325.139 20.0419C325.138 20.1442 325.178 20.2427 325.25 20.3151L326.61 21.6982C326.75 21.8395 326.977 21.8424 327.121 21.7049C328.184 20.7368 329.567 20.2003 331 20.1997ZM333.616 23.5006C333.689 23.4288 333.729 23.3299 333.727 23.2273C333.725 23.1248 333.68 23.0276 333.605 22.9588C332.101 21.6798 329.9 21.6798 328.396 22.9588C328.32 23.0276 328.276 23.1247 328.274 23.2272C328.272 23.3298 328.312 23.4287 328.385 23.5006L330.739 25.8902C330.808 25.9605 330.902 26 331 26C331.099 26 331.193 25.9605 331.262 25.8902L333.616 23.5006Z" fill="black"/>
<path d="M346.923 16.2051C346.923 15.4971 347.497 14.9231 348.205 14.9231H365.833C366.541 14.9231 367.115 15.4971 367.115 16.2051V22.2949C367.115 23.0029 366.541 23.5769 365.833 23.5769H348.205C347.497 23.5769 346.923 23.0029 346.923 22.2949V16.2051Z" fill="black"/>
<path opacity="0.4" fill-rule="evenodd" clip-rule="evenodd" d="M348.205 13.9615H365.833C367.072 13.9615 368.077 14.966 368.077 16.2051V22.2949C368.077 23.534 367.072 24.5385 365.833 24.5385H348.205C346.966 24.5385 345.962 23.534 345.962 22.2949V16.2051C345.962 14.966 346.966 13.9615 348.205 13.9615ZM345 16.2051C345 14.435 346.435 13 348.205 13H365.833C367.603 13 369.038 14.435 369.038 16.2051V22.2949C369.038 24.065 367.603 25.5 365.833 25.5H348.205C346.435 25.5 345 24.065 345 22.2949V16.2051ZM371.603 19.25C371.603 20.2351 370.919 21.0605 370 21.2776V17.2224C370.919 17.4395 371.603 18.2649 371.603 19.25Z" fill="black"/>
<path fill-rule="evenodd" clip-rule="evenodd" d="M313.85 14C313.298 14 312.85 14.4477 312.85 15V24C312.85 24.5523 313.298 25 313.85 25H315.15C315.702 25 316.15 24.5523 316.15 24V15C316.15 14.4477 315.702 14 315.15 14H313.85ZM307.9 17.1999C307.9 16.6476 308.348 16.1999 308.9 16.1999H310.2C310.752 16.1999 311.2 16.6476 311.2 17.1999V23.9999C311.2 24.5522 310.752 24.9999 310.2 24.9999H308.9C308.348 24.9999 307.9 24.5522 307.9 23.9999V17.1999ZM303.95 18.4C303.398 18.4 302.95 18.8478 302.95 19.4V24C302.95 24.5523 303.398 25 303.95 25H305.25C305.802 25 306.25 24.5523 306.25 24V19.4C306.25 18.8478 305.802 18.4 305.25 18.4H303.95ZM299.1 25C298.492 25 298 24.5075 298 23.9V21.15C298 20.5425 298.492 20.05 299.1 20.05H300.2C300.808 20.05 301.3 20.5425 301.3 21.15V23.9C301.3 24.5075 300.808 25 300.2 25H299.1Z" fill="black"/>
<path d="M27.3499 26H29.5735V13.3174H27.3323L24.0188 15.6465V17.7295L27.2971 15.4795H27.3499V26ZM36.86 13.0977C34.1266 13.0977 32.1139 14.9346 32.1139 17.4922V17.5098C32.1139 19.8916 33.8366 21.6494 36.2799 21.6494C37.9938 21.6494 39.2594 20.7705 39.7604 19.6104H39.8131C39.8131 19.751 39.8043 19.8828 39.7955 20.0146C39.7077 22.4141 38.8551 24.3652 36.8161 24.3652C35.6823 24.3652 34.9088 23.8027 34.5661 22.9326L34.5397 22.8535H32.2897L32.3073 22.9502C32.7028 24.8662 34.4606 26.2197 36.8073 26.2197C40.0416 26.2197 41.984 23.7148 41.984 19.5225V19.5049C41.984 15.0576 39.6549 13.0977 36.86 13.0977ZM36.86 19.9004C35.4186 19.9004 34.3463 18.8721 34.3463 17.4307V17.4131C34.3463 16.042 35.4801 14.9521 36.8864 14.9521C38.3102 14.9521 39.4176 16.0508 39.4176 17.457V17.4658C39.4176 18.8809 38.3102 19.9004 36.86 19.9004ZM44.4541 17.7031C45.166 17.7031 45.7197 17.1406 45.7197 16.4287C45.7197 15.7168 45.166 15.1631 44.4541 15.1631C43.7422 15.1631 43.1797 15.7168 43.1797 16.4287C43.1797 17.1406 43.7422 17.7031 44.4541 17.7031ZM44.4541 24.1543C45.166 24.1543 45.7197 23.5918 45.7197 22.8799C45.7197 22.168 45.166 21.6143 44.4541 21.6143C43.7422 21.6143 43.1797 22.168 43.1797 22.8799C43.1797 23.5918 43.7422 24.1543 44.4541 24.1543ZM51.9164 26.2197C55.0189 26.2197 56.8998 23.6973 56.8998 19.6631V19.6455C56.8998 15.6113 55.0189 13.0977 51.9164 13.0977C48.805 13.0977 46.933 15.6113 46.933 19.6455V19.6631C46.933 23.6973 48.805 26.2197 51.9164 26.2197ZM51.9164 24.3652C50.2025 24.3652 49.2181 22.5898 49.2181 19.6631V19.6455C49.2181 16.7188 50.2025 14.9609 51.9164 14.9609C53.6214 14.9609 54.6146 16.7188 54.6146 19.6455V19.6631C54.6146 22.5898 53.6214 24.3652 51.9164 24.3652ZM58.113 26H67.0251V24.1455H61.1101V24.0488L63.905 21.3945C66.1374 19.25 66.8318 18.2393 66.8318 16.7451V16.7275C66.8318 14.6357 65.0564 13.0977 62.5163 13.0977C59.9411 13.0977 57.99 14.7588 57.99 17.0791V17.1406H60.1169V17.0791C60.1433 15.8574 61.1277 14.917 62.5339 14.917C63.7556 14.917 64.6081 15.7256 64.6169 16.8594V16.877C64.6169 17.8174 64.2566 18.459 62.5954 20.085L58.113 24.4531V26Z" fill="black"/>
<path d="M61.8457 126H68.2441C74.1504 126 77.5957 122.377 77.5957 116.143V116.115C77.5957 109.881 74.1367 106.271 68.2441 106.271H61.8457V126ZM63.7051 124.305V107.967H68.1348C72.9883 107.967 75.6953 110.879 75.6953 116.129V116.156C75.6953 121.379 72.9883 124.305 68.1348 124.305H63.7051ZM81.7605 109.211C82.4167 109.211 82.9499 108.678 82.9499 108.008C82.9499 107.338 82.4167 106.818 81.7605 106.818C81.0906 106.818 80.5574 107.338 80.5574 108.008C80.5574 108.678 81.0906 109.211 81.7605 109.211ZM80.8445 126H82.6628V111.781H80.8445V126ZM91.1753 126.26C94.2925 126.26 96.5483 124.551 96.5483 122.131V122.117C96.5483 120.121 95.4682 119.014 92.6382 118.33L90.4917 117.824C88.6186 117.373 87.853 116.648 87.853 115.514V115.5C87.853 114.051 89.1382 113.053 91.0659 113.053C93.0483 113.053 94.3061 114.133 94.5385 115.787L94.5522 115.883H96.2885L96.2749 115.732C96.0425 113.285 94.101 111.521 91.0659 111.521C88.0991 111.521 86.0073 113.203 86.0073 115.568V115.582C86.0073 117.551 87.2925 118.727 89.9721 119.369L92.1186 119.889C94.019 120.34 94.7026 121.01 94.7026 122.24V122.254C94.7026 123.744 93.3354 124.729 91.1889 124.729C89.0425 124.729 87.7163 123.662 87.4292 122.021L87.4018 121.898H85.5971L85.6108 122.021C85.8843 124.537 87.9487 126.26 91.1753 126.26ZM103.584 126.26C104.022 126.26 104.487 126.205 104.774 126.15V124.674C104.569 124.701 104.281 124.742 103.953 124.742C102.627 124.742 101.957 124.209 101.957 122.637V113.299H104.774V111.781H101.957V107.939H100.098V111.781H98.0061V113.299H100.098V122.664C100.098 125.152 101.246 126.26 103.584 126.26ZM111.468 126.26C113.573 126.26 115.446 125.098 116.226 123.402H116.28V126H118.085V116.266C118.085 113.354 116.048 111.521 112.794 111.521C109.581 111.521 107.558 113.271 107.284 115.719L107.27 115.883H109.02L109.048 115.746C109.349 114.133 110.702 113.135 112.767 113.135C114.981 113.135 116.28 114.379 116.28 116.43V117.66L111.851 117.934C108.583 118.152 106.751 119.615 106.751 122.035V122.062C106.751 124.578 108.665 126.26 111.468 126.26ZM108.597 122.062V122.035C108.597 120.477 109.841 119.506 112.069 119.369L116.28 119.082V120.654C116.28 122.924 114.325 124.674 111.837 124.674C109.909 124.674 108.597 123.621 108.597 122.062ZM121.484 126H123.289V117.578C123.289 114.926 124.943 113.148 127.418 113.148C129.838 113.148 131.15 114.557 131.15 117.195V126H132.955V116.895C132.955 113.559 131.095 111.535 127.951 111.535C125.654 111.535 124.054 112.67 123.343 114.201H123.289V111.781H121.484V126ZM142.123 126.26C145.227 126.26 147.51 124.305 147.934 121.652L147.948 121.543H146.157L146.129 121.652C145.705 123.43 144.243 124.646 142.123 124.646C139.362 124.646 137.516 122.486 137.516 118.904V118.891C137.516 115.363 139.334 113.135 142.11 113.135C144.325 113.135 145.733 114.461 146.129 116.129L146.157 116.238H147.934L147.92 116.115C147.565 113.668 145.418 111.521 142.11 111.521C138.213 111.521 135.657 114.393 135.657 118.863V118.877C135.657 123.402 138.172 126.26 142.123 126.26ZM156.323 126.26C159.4 126.26 161.669 124.496 162.161 122.062L162.189 121.926H160.398L160.37 122.049C159.905 123.594 158.456 124.646 156.364 124.646C153.562 124.646 151.743 122.719 151.689 119.328H162.366V118.617C162.366 114.365 159.974 111.521 156.173 111.521C152.372 111.521 149.857 114.461 149.857 118.918V118.932C149.857 123.43 152.331 126.26 156.323 126.26ZM156.159 113.135C158.593 113.135 160.343 114.789 160.548 117.893H151.716C151.935 114.871 153.739 113.135 156.159 113.135Z" fill="black"/>
<mask id="mask0_8_61" style="mask-type:alpha" maskUnits="userSpaceOnUse" x="28" y="87" width="24" height="24">
<rect x="28" y="87" width="24" height="24" fill="#D9D9D9"/>
</mask>
<g mask="url(#mask0_8_61)">
<path d="M37.675 100.7L38.55 97.85L36.25 96H39.1L40 93.2L40.9 96H43.75L41.425 97.85L42.3 100.7L40 98.925L37.675 100.7ZM34 110V102.275C33.3667 101.575 32.875 100.775 32.525 99.875C32.175 98.975 32 98.0167 32 97C32 94.7667 32.775 92.875 34.325 91.325C35.875 89.775 37.7667 89 40 89C42.2333 89 44.125 89.775 45.675 91.325C47.225 92.875 48 94.7667 48 97C48 98.0167 47.825 98.975 47.475 99.875C47.125 100.775 46.6333 101.575 46 102.275V110L40 108L34 110ZM40 103C41.6667 103 43.0833 102.417 44.25 101.25C45.4167 100.083 46 98.6667 46 97C46 95.3333 45.4167 93.9167 44.25 92.75C43.0833 91.5833 41.6667 91 40 91C38.3333 91 36.9167 91.5833 35.75 92.75C34.5833 93.9167 34 95.3333 34 97C34 98.6667 34.5833 100.083 35.75 101.25C36.9167 102.417 38.3333 103 40 103ZM36 107.025L40 106L44 107.025V103.925C43.4167 104.258 42.7877 104.521 42.113 104.712C41.4377 104.904 40.7333 105 40 105C39.2667 105 38.5623 104.904 37.887 104.712C37.2123 104.521 36.5833 104.258 36 103.925V107.025Z" fill="#1C1B1F"/>
</g>
<path d="M60.1953 102H61.6719L62.8125 98.7734H67.3516L68.4922 102H69.9688L65.7812 90.7266H64.3906L60.1953 102ZM65.0703 92.4141H65.1016L66.9297 97.5781H63.2422L65.0703 92.4141ZM74.6456 102.156C76.4816 102.156 77.8175 100.961 78.0363 99.4141L78.0441 99.3594H76.7081L76.6925 99.4219C76.4659 100.328 75.755 100.953 74.6456 100.953C73.2394 100.953 72.2706 99.8359 72.2706 97.9453V97.9375C72.2706 96.0938 73.2159 94.9219 74.63 94.9219C75.8253 94.9219 76.4816 95.6406 76.6847 96.4531L76.7003 96.5156H78.0284L78.0206 96.4531C77.8488 95.0625 76.6534 93.7188 74.63 93.7188C72.3722 93.7188 70.88 95.3594 70.88 97.9219V97.9297C70.88 100.516 72.3409 102.156 74.6456 102.156ZM79.7444 102H81.1038V97.2578C81.1038 95.875 81.9397 94.9219 83.1975 94.9219C84.4631 94.9219 85.2131 95.7891 85.2131 97.2578V102H86.5725V97.0234C86.5725 95.0547 85.3928 93.7188 83.6663 93.7188C82.4553 93.7188 81.5725 94.2578 81.135 95.1719H81.1038V90.7266H79.7444V102ZM89.4447 92.5C89.9212 92.5 90.2962 92.1172 90.2962 91.6484C90.2962 91.1719 89.9212 90.7969 89.4447 90.7969C88.9759 90.7969 88.5931 91.1719 88.5931 91.6484C88.5931 92.1172 88.9759 92.5 89.4447 92.5ZM88.765 102H90.1244V93.875H88.765V102ZM95.6997 102.156C97.4731 102.156 98.8013 101.094 99.0669 99.75L99.0825 99.6719H97.7466L97.7231 99.7422C97.4888 100.438 96.7622 100.953 95.7309 100.953C94.2856 100.953 93.3638 99.9766 93.3325 98.3047H99.1841V97.8047C99.1841 95.3672 97.8325 93.7188 95.6138 93.7188C93.395 93.7188 91.9575 95.4453 91.9575 97.9609V97.9688C91.9575 100.523 93.3638 102.156 95.6997 102.156ZM95.6059 94.9219C96.7934 94.9219 97.6684 95.6641 97.8013 97.2422H93.3559C93.5044 95.7266 94.4263 94.9219 95.6059 94.9219ZM102.916 102H104.306L107.291 93.875H105.877L103.627 100.555H103.595L101.353 93.875H99.9234L102.916 102ZM111.772 102.156C113.546 102.156 114.874 101.094 115.139 99.75L115.155 99.6719H113.819L113.796 99.7422C113.561 100.438 112.835 100.953 111.803 100.953C110.358 100.953 109.436 99.9766 109.405 98.3047H115.257V97.8047C115.257 95.3672 113.905 93.7188 111.686 93.7188C109.467 93.7188 108.03 95.4453 108.03 97.9609V97.9688C108.03 100.523 109.436 102.156 111.772 102.156ZM111.678 94.9219C112.866 94.9219 113.741 95.6641 113.874 97.2422H109.428C109.577 95.7266 110.499 94.9219 111.678 94.9219ZM117.012 102H118.371V96.9062C118.371 95.7734 119.152 94.9219 120.23 94.9219C121.238 94.9219 121.894 95.5703 121.894 96.5547V102H123.254V96.8359C123.254 95.7266 124.012 94.9219 125.09 94.9219C126.16 94.9219 126.777 95.5859 126.777 96.7031V102H128.137V96.3906C128.137 94.7734 127.097 93.7188 125.488 93.7188C124.347 93.7188 123.394 94.3047 122.941 95.2812H122.91C122.558 94.2891 121.738 93.7188 120.629 93.7188C119.582 93.7188 118.769 94.2578 118.402 95.0625H118.371V93.875H117.012V102ZM133.595 102.156C135.368 102.156 136.696 101.094 136.962 99.75L136.978 99.6719H135.642L135.618 99.7422C135.384 100.438 134.657 100.953 133.626 100.953C132.181 100.953 131.259 99.9766 131.228 98.3047H137.079V97.8047C137.079 95.3672 135.728 93.7188 133.509 93.7188C131.29 93.7188 129.853 95.4453 129.853 97.9609V97.9688C129.853 100.523 131.259 102.156 133.595 102.156ZM133.501 94.9219C134.688 94.9219 135.563 95.6641 135.696 97.2422H131.251C131.399 95.7266 132.321 94.9219 133.501 94.9219ZM138.834 102H140.193V97.2188C140.193 95.8359 141.029 94.9219 142.311 94.9219C143.561 94.9219 144.178 95.6484 144.178 96.9688V102H145.537V96.7266C145.537 94.875 144.506 93.7188 142.725 93.7188C141.49 93.7188 140.662 94.2734 140.225 95.0312H140.193V93.875H138.834V102ZM150.292 102.156C150.558 102.156 150.847 102.125 151.019 102.102V101C150.902 101.008 150.745 101.031 150.581 101.031C149.855 101.031 149.472 100.789 149.472 99.9219V95H151.019V93.875H149.472V91.6797H148.066V93.875H146.878V95H148.066V99.9297C148.066 101.484 148.8 102.156 150.292 102.156ZM155.743 102.156C157.555 102.156 158.899 101.156 158.899 99.7344V99.7266C158.899 98.5703 158.305 97.9219 156.664 97.5234L155.375 97.2109C154.477 96.9922 154.11 96.6094 154.11 96.0547V96.0469C154.11 95.3281 154.719 94.8516 155.703 94.8516C156.711 94.8516 157.313 95.375 157.422 96.1641L157.43 96.2188H158.727L158.719 96.1172C158.618 94.7578 157.485 93.7188 155.703 93.7188C153.946 93.7188 152.719 94.7109 152.719 96.1094V96.1172C152.719 97.2891 153.461 98 154.993 98.3672L156.282 98.6797C157.203 98.9062 157.508 99.2344 157.508 99.8203V99.8281C157.508 100.562 156.852 101.023 155.75 101.023C154.641 101.023 154.039 100.547 153.875 99.7344L153.86 99.6562H152.5L152.508 99.7266C152.672 101.18 153.828 102.156 155.743 102.156ZM164.287 90.7266H162.99L159.81 104.734H161.107L164.287 90.7266ZM165.753 102H167.159V97.5391H169.854L172.268 102H173.917L171.307 97.3203C172.713 96.875 173.573 95.6641 173.573 94.1016V94.0859C173.573 92.0547 172.151 90.7266 169.979 90.7266H165.753V102ZM167.159 96.2969V91.9766H169.792C171.237 91.9766 172.12 92.7734 172.12 94.1172V94.1328C172.12 95.5156 171.299 96.2969 169.854 96.2969H167.159ZM178.289 102.156C179.523 102.156 180.351 101.602 180.789 100.844H180.82V102H182.179V93.875H180.82V98.6562C180.82 100.039 179.984 100.953 178.703 100.953C177.453 100.953 176.836 100.227 176.836 98.9062V93.875H175.476V99.1484C175.476 101 176.507 102.156 178.289 102.156ZM184.333 102H185.692V97.2188C185.692 95.8359 186.528 94.9219 187.809 94.9219C189.059 94.9219 189.677 95.6484 189.677 96.9688V102H191.036V96.7266C191.036 94.875 190.005 93.7188 188.223 93.7188C186.989 93.7188 186.161 94.2734 185.723 95.0312H185.692V93.875H184.333V102ZM193.15 102H194.51V97.2188C194.51 95.8359 195.346 94.9219 196.627 94.9219C197.877 94.9219 198.494 95.6484 198.494 96.9688V102H199.853V96.7266C199.853 94.875 198.822 93.7188 197.041 93.7188C195.807 93.7188 194.978 94.2734 194.541 95.0312H194.51V93.875H193.15V102ZM202.733 92.5C203.21 92.5 203.585 92.1172 203.585 91.6484C203.585 91.1719 203.21 90.7969 202.733 90.7969C202.265 90.7969 201.882 91.1719 201.882 91.6484C201.882 92.1172 202.265 92.5 202.733 92.5ZM202.054 102H203.413V93.875H202.054V102ZM205.645 102H207.004V97.2188C207.004 95.8359 207.84 94.9219 209.121 94.9219C210.371 94.9219 210.988 95.6484 210.988 96.9688V102H212.348V96.7266C212.348 94.875 211.317 93.7188 209.535 93.7188C208.301 93.7188 207.473 94.2734 207.035 95.0312H207.004V93.875H205.645V102ZM217.9 104.891C220.103 104.891 221.486 103.656 221.486 101.773V93.875H220.126V95.25H220.095C219.595 94.3438 218.689 93.7188 217.54 93.7188C215.478 93.7188 214.064 95.3594 214.064 97.8828V97.8906C214.064 100.43 215.462 102.078 217.509 102.078C218.673 102.078 219.611 101.5 220.095 100.602H220.126V101.641C220.126 102.898 219.314 103.688 217.884 103.688C216.775 103.688 216.001 103.328 215.743 102.742L215.712 102.672H214.345L214.361 102.742C214.626 103.945 215.892 104.891 217.9 104.891ZM217.806 100.875C216.361 100.875 215.454 99.7344 215.454 97.8906V97.8828C215.454 96.0781 216.361 94.9219 217.806 94.9219C219.181 94.9219 220.126 96.0938 220.126 97.8828V97.8906C220.126 99.6953 219.189 100.875 217.806 100.875Z" fill="#3C3C43" fill-opacity="0.6"/>
<path d="M0 200L393 200" stroke="#E8E8E8"/>
<path fill-rule="evenodd" clip-rule="evenodd" d="M38.1583 181.784C38.1583 183.184 37.0041 184.319 35.5792 184.319C34.155 184.319 33 183.184 33 181.784C33 180.385 34.155 179.25 35.5792 179.25C37.0041 179.25 38.1583 180.385 38.1583 181.784ZM46.87 180.674C47.4933 180.674 48 181.172 48 181.784C48 182.397 47.4933 182.895 46.87 182.895H41.9384C41.3142 182.895 40.8075 182.397 40.8075 181.784C40.8075 181.172 41.3142 180.674 41.9384 180.674H46.87ZM34.1308 188.968H39.0625C39.6866 188.968 40.1933 189.466 40.1933 190.079C40.1933 190.692 39.6866 191.19 39.0625 191.19H34.1308C33.5067 191.19 33 190.692 33 190.079C33 189.466 33.5067 188.968 34.1308 188.968ZM45.4208 192.583C46.8458 192.583 48 191.449 48 190.049C48 188.649 46.8458 187.515 45.4208 187.515C43.9967 187.515 42.8417 188.649 42.8417 190.049C42.8417 191.449 43.9967 192.583 45.4208 192.583Z" fill="#130F26"/>
<path d="M60.5659 191H61.645L63.7524 183.77H63.8286L65.936 191H67.0151L69.5098 181.84H68.3164L66.4946 189.286H66.4185L64.3682 181.84H63.2129L61.1626 189.286H61.0864L59.2646 181.84H58.0713L60.5659 191ZM73.1896 191.121C74.8019 191.121 75.7794 190.207 76.0143 189.28L76.027 189.229H74.9225L74.8971 189.286C74.713 189.699 74.1417 190.137 73.215 190.137C71.9962 190.137 71.2155 189.312 71.1837 187.896H76.1095V187.464C76.1095 185.42 74.9796 184.037 73.1198 184.037C71.2599 184.037 70.0538 185.484 70.0538 187.598V187.604C70.0538 189.75 71.2345 191.121 73.1896 191.121ZM73.1134 185.021C74.1227 185.021 74.8717 185.662 74.986 187.014H71.2028C71.3234 185.712 72.0978 185.021 73.1134 185.021ZM80.5383 191.121C82.1506 191.121 83.1282 190.207 83.363 189.28L83.3757 189.229H82.2712L82.2459 189.286C82.0618 189.699 81.4905 190.137 80.5637 190.137C79.345 190.137 78.5642 189.312 78.5325 187.896H83.4583V187.464C83.4583 185.42 82.3284 184.037 80.4685 184.037C78.6086 184.037 77.4026 185.484 77.4026 187.598V187.604C77.4026 189.75 78.5833 191.121 80.5383 191.121ZM80.4622 185.021C81.4714 185.021 82.2205 185.662 82.3347 187.014H78.5515C78.6721 185.712 79.4465 185.021 80.4622 185.021ZM85.1576 191H86.2621V188.404L86.9032 187.782L89.4677 191H90.8578L87.6776 187.033L90.661 184.157H89.3217L86.3637 187.147H86.2621V181.44H85.1576V191ZM92.1382 191H93.2427V181.44H92.1382V191ZM95.8688 193.399C97.0812 193.399 97.6461 192.955 98.2111 191.419L100.883 184.157H99.7218L97.8493 189.788H97.7477L95.8688 184.157H94.6881L97.2208 191.006L97.0939 191.413C96.8463 192.2 96.4655 192.485 95.8371 192.485C95.6847 192.485 95.5133 192.479 95.38 192.454V193.361C95.5324 193.387 95.7228 193.399 95.8688 193.399Z" fill="#3C3C43" fill-opacity="0.6"/>
<path d="M25.2591 67.4L11.9102 56L25.2591 44.6L26.0899 45.5713L13.8783 56L26.0899 66.4287" fill="#8A8A8E"/>
<path fill-rule="evenodd" clip-rule="evenodd" d="M378.294 51.2911C378.294 54.2281 375.939 56.5831 373 56.5831C370.062 56.5831 367.706 54.2281 367.706 51.2911C367.706 48.354 370.062 46 373 46C375.939 46 378.294 48.354 378.294 51.2911ZM373 66C368.662 66 365 65.295 365 62.575C365 59.8539 368.685 59.1739 373 59.1739C377.339 59.1739 381 59.8789 381 62.599C381 65.32 377.315 66 373 66Z" fill="#130F26"/>
<path d="M314.263 191H315.405V181.84H314.269L311.832 183.592V184.798L314.161 183.11H314.263V191ZM321.04 191.216C323.065 191.216 324.284 189.369 324.284 186.423V186.411C324.284 183.465 323.065 181.625 321.04 181.625C319.015 181.625 317.809 183.465 317.809 186.411V186.423C317.809 189.369 319.015 191.216 321.04 191.216ZM321.04 190.219C319.726 190.219 318.958 188.759 318.958 186.423V186.411C318.958 184.075 319.726 182.627 321.04 182.627C322.354 182.627 323.135 184.075 323.135 186.411V186.423C323.135 188.759 322.354 190.219 321.04 190.219ZM329.151 191.216C331.176 191.216 332.394 189.369 332.394 186.423V186.411C332.394 183.465 331.176 181.625 329.151 181.625C327.126 181.625 325.92 183.465 325.92 186.411V186.423C325.92 189.369 327.126 191.216 329.151 191.216ZM329.151 190.219C327.837 190.219 327.069 188.759 327.069 186.423V186.411C327.069 184.075 327.837 182.627 329.151 182.627C330.465 182.627 331.245 184.075 331.245 186.411V186.423C331.245 188.759 330.465 190.219 329.151 190.219ZM337.919 191H339.062V187.731H341.373C343.093 187.731 344.312 186.519 344.312 184.779V184.767C344.312 183.027 343.093 181.84 341.373 181.84H337.919V191ZM341.081 182.856C342.388 182.856 343.144 183.573 343.144 184.779V184.792C343.144 185.998 342.388 186.715 341.081 186.715H339.062V182.856H341.081ZM348.588 191.121C350.537 191.121 351.743 189.775 351.743 187.585V187.572C351.743 185.376 350.537 184.037 348.588 184.037C346.639 184.037 345.433 185.376 345.433 187.572V187.585C345.433 189.775 346.639 191.121 348.588 191.121ZM348.588 190.143C347.293 190.143 346.563 189.197 346.563 187.585V187.572C346.563 185.954 347.293 185.014 348.588 185.014C349.883 185.014 350.613 185.954 350.613 187.572V187.585C350.613 189.197 349.883 190.143 348.588 190.143ZM353.963 182.837C354.382 182.837 354.724 182.494 354.724 182.075C354.724 181.656 354.382 181.313 353.963 181.313C353.544 181.313 353.201 181.656 353.201 182.075C353.201 182.494 353.544 182.837 353.963 182.837ZM353.404 191H354.509V184.157H353.404V191ZM356.513 191H357.617V186.95C357.617 185.75 358.309 185.014 359.401 185.014C360.493 185.014 361 185.604 361 186.836V191H362.105V186.569C362.105 184.944 361.248 184.037 359.712 184.037C358.703 184.037 358.061 184.462 357.719 185.186H357.617V184.157H356.513V191ZM366.458 191.051C366.673 191.051 366.883 191.025 367.099 190.987V190.048C366.896 190.067 366.788 190.073 366.591 190.073C365.88 190.073 365.601 189.75 365.601 188.943V185.071H367.099V184.157H365.601V182.386H364.458V184.157H363.379V185.071H364.458V189.223C364.458 190.53 365.048 191.051 366.458 191.051ZM370.893 191.121C372.448 191.121 373.635 190.276 373.635 189.058V189.045C373.635 188.067 373.013 187.509 371.724 187.198L370.671 186.944C369.864 186.747 369.522 186.455 369.522 185.992V185.979C369.522 185.376 370.118 184.957 370.931 184.957C371.756 184.957 372.289 185.332 372.435 185.871H373.521C373.368 184.754 372.372 184.037 370.937 184.037C369.484 184.037 368.392 184.894 368.392 186.03V186.036C368.392 187.02 368.969 187.579 370.252 187.883L371.312 188.137C372.156 188.34 372.505 188.664 372.505 189.127V189.14C372.505 189.762 371.851 190.2 370.931 190.2C370.055 190.2 369.509 189.826 369.325 189.254H368.195C368.322 190.384 369.369 191.121 370.893 191.121Z" fill="#3C3C43" fill-opacity="0.6"/>
<mask id="mask1_8_61" style="mask-type:alpha" maskUnits="userSpaceOnUse" x="37" y="252" width="320" height="320">
<circle cx="197" cy="412" r="150" stroke="black" stroke-width="20"/>
</mask>
<g mask="url(#mask1_8_61)">
<rect x="-46" y="238" width="479" height="137" fill="#D9D9D9"/>
</g>
<mask id="mask2_8_61" style="mask-type:alpha" maskUnits="userSpaceOnUse" x="37" y="252" width="320" height="320">
<circle cx="197" cy="412" r="150" stroke="black" stroke-width="20"/>
</mask>
<g mask="url(#mask2_8_61)">
<path d="M-46 238H433V375L312 278.5L275 304.5L105.5 375H-46V238Z" fill="url(#paint0_linear_8_61)"/>
</g>
<path d="M155.184 235H157.325V223.022H155.192L152.062 225.222V227.239L155.042 225.13H155.184V235ZM164.571 235.299C167.16 235.299 168.978 233.597 168.978 231.107V231.09C168.978 228.799 167.36 227.139 165.127 227.139C163.998 227.139 163.068 227.621 162.57 228.426H162.429L162.761 224.782H168.281V223.022H161.092L160.511 230.036H162.346C162.487 229.771 162.686 229.538 162.902 229.355C163.342 228.957 163.923 228.758 164.595 228.758C165.965 228.758 166.945 229.737 166.945 231.132V231.148C166.945 232.56 165.982 233.547 164.579 233.547C163.35 233.547 162.446 232.767 162.288 231.788L162.28 231.729H160.304L160.312 231.837C160.47 233.805 162.122 235.299 164.571 235.299ZM175.193 235H177.335V231.148L178.613 229.663L182.398 235H185.013L180.14 228.243L184.656 223.022H182.199L177.476 228.559H177.335V223.022H175.193V235ZM186.539 235H188.473V226.483H188.614L191.934 235H193.395L196.716 226.483H196.865V235H198.791V223.022H196.334L192.74 232.236H192.598L188.996 223.022H186.539V235ZM205.462 235H207.604V230.493H209.978L212.327 235H214.776L212.161 230.169C213.58 229.654 214.419 228.343 214.419 226.757V226.741C214.419 224.458 212.875 223.022 210.302 223.022H205.462V235ZM207.604 228.849V224.757H210.036C211.397 224.757 212.219 225.537 212.219 226.791V226.807C212.219 228.094 211.43 228.849 210.077 228.849H207.604ZM221.523 235.299C224.569 235.299 226.445 233.514 226.445 230.875V223.022H224.304V230.7C224.304 232.352 223.308 233.448 221.531 233.448C219.747 233.448 218.742 232.352 218.742 230.7V223.022H216.601V230.875C216.601 233.514 218.493 235.299 221.523 235.299ZM228.984 235H231.051V226.749H231.184L237.069 235H238.92V223.022H236.861V231.273H236.729L230.843 223.022H228.984V235Z" fill="black"/>
<path d="M40.1445 394.166C41.7021 394.166 42.6396 392.745 42.6396 390.479V390.47C42.6396 388.204 41.7021 386.788 40.1445 386.788C38.5869 386.788 37.6592 388.204 37.6592 390.47V390.479C37.6592 392.745 38.5869 394.166 40.1445 394.166ZM40.1445 393.399C39.1338 393.399 38.543 392.276 38.543 390.479V390.47C38.543 388.673 39.1338 387.56 40.1445 387.56C41.1553 387.56 41.7559 388.673 41.7559 390.47V390.479C41.7559 392.276 41.1553 393.399 40.1445 393.399ZM46.8538 394H47.7327V391.539L48.5774 390.606L51.1213 394H52.259L49.1829 389.996L52.0002 386.954H50.8967L47.8108 390.377H47.7327V386.954H46.8538V394ZM53.3676 394H54.1879V388.619H54.2416L56.4681 394H57.2103L59.4369 388.619H59.4906V394H60.3109V386.954H59.2904L56.8783 392.833H56.8002L54.3881 386.954H53.3676V394Z" fill="#3C3C43" fill-opacity="0.6"/>
<path d="M330.51 397H331.389V389.954H330.515L328.64 391.302V392.229L330.432 390.931H330.51V397ZM335.661 397.166C337.092 397.166 338.112 396.175 338.112 394.754V394.744C338.112 393.382 337.16 392.391 335.837 392.391C335.197 392.391 334.646 392.649 334.333 393.123H334.255L334.494 390.74H337.722V389.954H333.801L333.43 394.002H334.192C334.279 393.836 334.392 393.699 334.514 393.582C334.817 393.294 335.217 393.152 335.686 393.152C336.599 393.152 337.253 393.821 337.253 394.759V394.769C337.253 395.721 336.609 396.39 335.671 396.39C334.846 396.39 334.235 395.853 334.152 395.179L334.148 395.14H333.303L333.308 395.193C333.41 396.321 334.348 397.166 335.661 397.166ZM342.297 397H343.176V394.539L344.021 393.606L346.565 397H347.703L344.626 392.996L347.444 389.954H346.34L343.254 393.377H343.176V389.954H342.297V397ZM348.811 397H349.631V391.619H349.685L351.912 397H352.654L354.88 391.619H354.934V397H355.754V389.954H354.734L352.322 395.833H352.244L349.832 389.954H348.811V397Z" fill="#3C3C43" fill-opacity="0.6"/>
<g clip-path="url(#clip1_8_61)">
<path d="M188.129 368.09L183.726 369.498C183.726 369.498 182.386 374.671 182.804 375.593C183.222 376.515 185.577 377.215 186.695 376.66C187.813 376.106 191.602 372.477 191.602 372.477L188.129 368.09Z" fill="#FFEDE5"/>
<path d="M192.165 363.096C192.165 363.096 189.349 366.288 188.129 368.09L191.269 372.998L194.555 370.045C194.555 370.045 194.008 361.875 192.165 363.096Z" fill="#543753"/>
<path d="M187.625 368.252V373.169L189.042 369.515L188.129 368.09L187.625 368.252Z" fill="#E0855C"/>
<path d="M187.412 365.401C187.796 365.494 187.915 365.23 188.231 365.734C188.547 366.237 189.212 368.209 189.033 368.508C188.854 368.807 186.866 370.727 186.721 370.727C186.576 370.727 186.209 370.19 186.285 370.002C186.285 370.002 185.816 370.284 185.509 370.232C185.509 370.232 184.826 370.591 184.553 370.523C184.28 370.454 182.684 368.098 183.06 367.475C183.435 366.852 183.674 367.176 183.896 366.929C184.118 366.681 184.493 366.271 184.946 366.314C185.398 366.357 185.603 365.657 186.26 365.759C186.917 365.862 186.558 365.187 187.412 365.401Z" fill="#FFEDE5"/>
<path d="M186.277 370.087C186.243 370.087 186.218 370.07 186.201 370.045C186.175 370.002 186.192 369.951 186.235 369.934C186.243 369.934 187.011 369.524 187.216 369.225L187.233 369.208C187.242 369.208 187.677 368.815 187.822 368.516L187.079 366.835C187.062 366.792 187.079 366.741 187.122 366.724C187.165 366.707 187.216 366.724 187.233 366.766L188.001 368.516L187.984 368.551C187.856 368.875 187.412 369.276 187.344 369.336C187.105 369.669 186.337 370.07 186.303 370.087C186.303 370.079 186.294 370.087 186.277 370.087Z" fill="#472938"/>
<path d="M185.501 370.318C185.467 370.318 185.441 370.301 185.424 370.266L184.477 368.337C184.46 368.295 184.477 368.243 184.519 368.226C184.562 368.209 184.613 368.226 184.63 368.269L185.578 370.198C185.595 370.241 185.578 370.292 185.535 370.309C185.526 370.318 185.518 370.318 185.501 370.318Z" fill="#472938"/>
<path d="M186.78 369.788C186.746 369.788 186.721 369.771 186.704 369.737L185.816 367.825C185.799 367.782 185.816 367.731 185.859 367.714C185.901 367.697 185.953 367.714 185.97 367.757L186.857 369.669C186.874 369.712 186.857 369.763 186.815 369.78C186.806 369.788 186.789 369.788 186.78 369.788Z" fill="#472938"/>
<path d="M186.712 370.813C186.576 370.813 186.422 370.599 186.362 370.514C186.32 370.454 186.226 370.301 186.192 370.147C186.029 370.224 185.748 370.343 185.517 370.326C185.381 370.395 184.801 370.676 184.528 370.608C184.374 370.574 184.092 370.198 183.939 369.976C183.913 369.934 183.922 369.882 183.956 369.857C183.99 369.831 184.05 369.84 184.075 369.874C184.34 370.258 184.519 370.42 184.562 370.437C184.741 370.48 185.202 370.284 185.458 370.156L185.483 370.147H185.509C185.79 370.19 186.226 369.925 186.234 369.925L186.456 369.797L186.362 370.036C186.354 370.062 186.354 370.147 186.439 370.309C186.541 370.497 186.661 370.616 186.712 370.642C186.925 370.523 188.316 369.208 188.811 368.679C188.35 368.79 187.907 368.593 187.89 368.585C187.847 368.568 187.83 368.516 187.847 368.474C187.864 368.431 187.915 368.414 187.958 368.431C187.966 368.431 188.521 368.679 188.99 368.431C189.05 368.397 189.093 368.414 189.11 368.44C189.136 368.457 189.153 368.499 189.136 368.542C189.076 368.696 186.917 370.813 186.712 370.813Z" fill="#472938"/>
<path d="M201.816 357.965L206.091 360.654V366.229C206.091 366.229 201.645 375.482 201.816 378.82L191.636 380.724C191.636 380.724 189.195 370.924 192.165 363.087L196.705 359.894L201.816 357.965Z" fill="#AB8DA8"/>
<path d="M190.697 372.853C190.655 372.853 190.612 372.819 190.612 372.768C190.578 370.403 190.765 368.201 191.184 366.203C191.192 366.16 191.235 366.126 191.286 366.135C191.329 366.143 191.363 366.186 191.354 366.237C190.945 368.218 190.748 370.412 190.791 372.759C190.783 372.81 190.748 372.853 190.697 372.853Z" fill="#472938"/>
<path d="M206.091 366.237L202.755 365.734L204.624 369.515L206.091 366.237Z" fill="#543753"/>
<path d="M200.707 354.542L201.816 357.965C200.63 358.426 199.563 359.143 198.693 360.074C197.234 361.627 196.67 363.096 195.792 363.096C194.913 363.096 196.713 359.903 196.713 359.903L196.483 356.915L200.707 354.542Z" fill="#FFEDE5"/>
<path d="M196.594 358.435C196.594 358.435 198.548 358.144 199.546 355.336L196.474 356.915L196.594 358.435Z" fill="#E0855C"/>
<path d="M195.143 347.55C195.143 347.55 193.257 356.753 194.239 357.385C195.22 358.016 199.094 357.47 200.536 354.909C201.978 352.348 200.169 347.55 195.143 347.55Z" fill="#FFEDE5"/>
<path d="M194.537 350.82C194.537 350.82 192.762 353.116 192.941 353.338C193.121 353.56 194.093 353.876 194.093 353.876L194.537 350.82Z" fill="#FFEDE5"/>
<path d="M199.862 353.518C199.862 353.518 198.975 353.074 199.546 351.136C199.546 351.136 198.394 349.096 197.643 348.763C196.892 348.43 194.981 348.327 194.981 348.327C194.981 348.327 194.597 345.638 195.237 345.356C195.877 345.075 201.799 345.237 202.917 347.328C203.292 348.037 203.053 348.464 203.053 348.464C203.053 348.464 203.685 349.3 203.574 350.017C203.463 350.735 201.722 353.389 201.722 353.389L199.862 353.518Z" fill="#3B2645"/>
<path d="M201.633 354.217C202.226 353.624 202.394 352.829 202.007 352.443C201.621 352.056 200.826 352.223 200.233 352.817C199.64 353.41 199.473 354.205 199.859 354.592C200.246 354.978 201.04 354.811 201.633 354.217Z" fill="#FFEDE5"/>
<path d="M194.99 355.353C194.588 355.353 194.23 355.242 194.204 355.233C194.162 355.216 194.136 355.174 194.153 355.122C194.17 355.08 194.213 355.054 194.264 355.071C194.273 355.071 195.433 355.447 195.834 354.832C195.86 354.789 195.911 354.781 195.954 354.807C195.996 354.832 196.005 354.883 195.979 354.926C195.749 355.259 195.356 355.353 194.99 355.353Z" fill="#472938"/>
<path d="M200.314 353.91C200.289 353.91 200.254 353.893 200.246 353.868C200.22 353.825 200.229 353.774 200.271 353.748L200.963 353.313C201.005 353.287 201.057 353.296 201.082 353.338C201.108 353.381 201.099 353.432 201.057 353.458L200.365 353.893C200.348 353.902 200.331 353.91 200.314 353.91Z" fill="#472938"/>
<path d="M195.715 350.828C195.894 350.871 196.005 351.05 195.962 351.221L195.911 351.452C195.868 351.631 195.689 351.742 195.518 351.699C195.339 351.657 195.228 351.477 195.271 351.307L195.322 351.076C195.365 350.897 195.535 350.786 195.715 350.828Z" fill="#3B2645"/>
<path d="M195.356 349.932C195.356 349.932 196.483 349.855 196.773 350.777C196.773 350.777 196.739 349.813 196.031 349.667C195.322 349.522 195.092 349.889 195.356 349.932Z" fill="#3B2645"/>
<path d="M203.335 358.921C199.504 358.272 202.047 366.357 202.047 366.357L207.781 368.09L209.906 361.559C206.57 360.091 203.335 358.921 203.335 358.921Z" fill="#AB8DA8"/>
<path d="M208.677 378.026C208.677 378.026 206.655 378.735 206.458 379.051C206.262 379.367 206.45 380.485 206.45 380.485C206.237 380.826 206.066 381.185 205.946 381.569C205.776 382.141 206.202 381.97 206.706 382.551C207.209 383.131 207.619 382.986 207.909 383.251C208.199 383.515 208.788 383.43 209.018 383.541C209.249 383.652 209.684 384.028 209.949 384.011C210.213 383.993 210.836 383.089 211.348 381.953C211.86 380.818 211.766 379.896 211.997 378.53C212.227 377.164 217.612 368.38 216.98 365.998C216.664 364.812 213.234 363.036 209.897 361.559L207.773 368.09L210.81 369.012L208.677 378.026Z" fill="#FFEDE5"/>
<path d="M211.724 369.336C211.715 369.336 211.707 369.336 211.698 369.336L210.785 369.088C210.742 369.08 210.708 369.029 210.725 368.986C210.734 368.943 210.785 368.918 210.828 368.926L211.741 369.174C211.783 369.182 211.817 369.234 211.8 369.276C211.8 369.31 211.766 369.336 211.724 369.336Z" fill="#472938"/>
<path d="M218.661 399.923L221.981 398.258C221.981 398.258 221.904 397.609 222.569 396.875C223.235 396.141 222.74 394.442 222.117 394.169C221.494 393.896 221.187 394.084 220.649 393.205L215.845 395.287L218.661 399.923Z" fill="#FFEDE5"/>
<path d="M222.109 394.169C222.732 394.442 223.218 396.141 222.561 396.875C221.904 397.609 221.972 398.258 221.972 398.258C224.814 398.642 227.485 402.808 227.988 403.278C228.492 403.747 230.531 403.414 230.591 403.064C230.651 402.714 226.222 391.028 225.812 390.772C225.403 390.515 220.641 393.205 220.641 393.205C221.179 394.084 221.486 393.896 222.109 394.169Z" fill="#AB8DA8"/>
<path d="M230.591 403.064C230.642 402.714 226.222 391.028 225.812 390.772C225.71 390.703 225.334 390.823 224.839 391.036C226.017 393.375 229.021 401.434 229.763 403.431C230.207 403.346 230.565 403.21 230.591 403.064Z" fill="#E5E5E5"/>
<path d="M193.07 387.579C193.07 387.579 200.682 407.555 203.89 407.819C207.099 408.084 220.12 399.334 220.12 399.334L217.697 394.476L206.698 398.105L203.958 385.564L193.07 387.579Z" fill="#3B2645"/>
<g opacity="0.5">
<path opacity="0.5" d="M203.958 385.573L193.07 387.579C193.07 387.579 195.024 392.701 197.362 397.789L204.863 389.756L203.958 385.573Z" fill="#3B2645"/>
</g>
<path d="M173.067 416.39L171.6 419.796C171.6 419.796 172.077 420.249 172.043 421.23C172.009 422.212 173.477 423.202 174.134 423.006C174.791 422.81 174.902 422.468 175.883 422.801L178.221 418.106L173.067 416.39Z" fill="#FFEDE5"/>
<path d="M172.556 417.577C172.556 417.577 174.57 419.685 177.206 420.129L178.213 418.106L173.068 416.382L172.556 417.577Z" fill="#E0855C"/>
<path d="M201.816 378.829C201.816 378.829 206.271 383.993 203.95 388.091C201.629 392.189 187.796 399.718 186.857 402.031C185.919 404.345 185.39 407.017 183.47 410.227C181.55 413.436 178.486 419.096 178.486 419.096C178.486 419.096 173.853 418.917 172.342 416.911C172.342 416.911 179.817 397.985 181.601 395.535C183.384 393.085 191.798 382.704 191.798 382.704L191.628 380.732L201.816 378.829Z" fill="#3B2645"/>
<path d="M176.379 418.422C176.37 418.422 176.37 418.422 176.362 418.422C176.344 418.413 176.327 418.388 176.344 418.362C176.43 418.183 184.664 400.631 186.311 398.583C186.917 397.823 188.701 396.039 190.757 393.973C194.282 390.439 198.659 386.042 199.248 384.693C200.17 382.593 199.555 379.64 199.547 379.606C199.538 379.58 199.555 379.563 199.581 379.554C199.606 379.546 199.623 379.563 199.632 379.589C199.64 379.614 200.255 382.602 199.325 384.728C198.727 386.085 194.341 390.49 190.817 394.033C188.76 396.098 186.986 397.874 186.38 398.634C184.741 400.674 176.507 418.217 176.43 418.396C176.413 418.413 176.396 418.422 176.379 418.422Z" fill="white"/>
<path d="M175.209 418.157C175.201 418.157 175.201 418.157 175.192 418.157C175.175 418.149 175.158 418.123 175.175 418.097C175.26 417.918 183.802 399.838 184.792 398.318C185.296 397.541 188.299 394.366 191.201 391.301C194.068 388.27 197.037 385.129 197.609 384.292C198.753 382.619 198.514 379.904 198.514 379.879C198.514 379.853 198.531 379.836 198.556 379.836C198.582 379.836 198.599 379.853 198.599 379.879C198.599 379.904 198.847 382.653 197.677 384.352C197.097 385.197 194.128 388.339 191.26 391.378C188.359 394.442 185.364 397.618 184.86 398.386C183.879 399.906 175.329 417.978 175.243 418.157C175.243 418.149 175.226 418.157 175.209 418.157Z" fill="white"/>
<path d="M174.126 423.015C173.477 423.202 172.001 422.221 172.035 421.239C172.069 420.257 171.591 419.805 171.591 419.805C169.168 421.341 164.449 419.873 163.758 419.839C163.066 419.805 161.718 421.376 161.906 421.674C162.094 421.973 172.991 428.068 173.477 428.009C173.964 427.949 175.866 422.818 175.866 422.818C174.894 422.477 174.783 422.827 174.126 423.015Z" fill="#AB8DA8"/>
<path d="M161.914 421.674C162.093 421.973 172.999 428.068 173.485 428.009C173.605 427.991 173.818 427.667 174.057 427.18C171.651 426.148 164.158 421.913 162.315 420.863C162.025 421.205 161.837 421.546 161.914 421.674Z" fill="#E5E5E5"/>
<g opacity="0.5">
<path opacity="0.5" d="M191.798 382.704C191.798 382.704 196.859 382.073 196.807 382.09C196.756 382.107 191.73 381.868 191.73 381.868L191.798 382.704Z" fill="#3B2645"/>
</g>
</g>
<path d="M161.205 329H162.322V327.102H163.624V326.08H162.322V319.84H160.666C159.383 321.751 157.98 323.985 156.743 326.061V327.102H161.205V329ZM157.911 326.086V326.01C158.907 324.328 160.107 322.437 161.135 320.9H161.211V326.086H157.911ZM165.774 329.063C166.231 329.063 166.599 328.689 166.599 328.238C166.599 327.781 166.231 327.413 165.774 327.413C165.323 327.413 164.948 327.781 164.948 328.238C164.948 328.689 165.323 329.063 165.774 329.063ZM171.237 329.216C173.097 329.216 174.424 327.927 174.424 326.08V326.067C174.424 324.296 173.186 323.008 171.466 323.008C170.634 323.008 169.917 323.344 169.511 323.96H169.409L169.72 320.862H173.916V319.84H168.819L168.336 325.103H169.326C169.441 324.887 169.587 324.709 169.745 324.557C170.139 324.182 170.659 323.998 171.269 323.998C172.456 323.998 173.306 324.868 173.306 326.086V326.099C173.306 327.337 172.469 328.207 171.25 328.207C170.177 328.207 169.384 327.508 169.276 326.632L169.269 326.582H168.171L168.177 326.651C168.311 328.118 169.53 329.216 171.237 329.216ZM179.834 329H180.939V319.44H179.834V329ZM185.774 329.121C187.386 329.121 188.364 328.207 188.599 327.28L188.611 327.229H187.507L187.482 327.286C187.298 327.699 186.726 328.137 185.799 328.137C184.581 328.137 183.8 327.312 183.768 325.896H188.694V325.464C188.694 323.42 187.564 322.037 185.704 322.037C183.844 322.037 182.638 323.484 182.638 325.598V325.604C182.638 327.75 183.819 329.121 185.774 329.121ZM185.698 323.021C186.707 323.021 187.456 323.662 187.57 325.014H183.787C183.908 323.712 184.682 323.021 185.698 323.021ZM190.787 329H191.891V323.071H193.447V322.157H191.891V321.427C191.891 320.678 192.209 320.291 192.996 320.291C193.193 320.291 193.377 320.297 193.51 320.323V319.44C193.282 319.396 193.04 319.377 192.774 319.377C191.472 319.377 190.787 320.031 190.787 321.396V322.157H189.651V323.071H190.787V329ZM197.393 329.051C197.609 329.051 197.818 329.025 198.034 328.987V328.048C197.831 328.067 197.723 328.073 197.526 328.073C196.815 328.073 196.536 327.75 196.536 326.943V323.071H198.034V322.157H196.536V320.386H195.393V322.157H194.314V323.071H195.393V327.223C195.393 328.53 195.984 329.051 197.393 329.051ZM205.616 329.051C205.832 329.051 206.041 329.025 206.257 328.987V328.048C206.054 328.067 205.946 328.073 205.749 328.073C205.038 328.073 204.759 327.75 204.759 326.943V323.071H206.257V322.157H204.759V320.386H203.616V322.157H202.537V323.071H203.616V327.223C203.616 328.53 204.207 329.051 205.616 329.051ZM210.54 329.121C212.489 329.121 213.695 327.775 213.695 325.585V325.572C213.695 323.376 212.489 322.037 210.54 322.037C208.591 322.037 207.385 323.376 207.385 325.572V325.585C207.385 327.775 208.591 329.121 210.54 329.121ZM210.54 328.143C209.245 328.143 208.515 327.197 208.515 325.585V325.572C208.515 323.954 209.245 323.014 210.54 323.014C211.835 323.014 212.565 323.954 212.565 325.572V325.585C212.565 327.197 211.835 328.143 210.54 328.143ZM221.727 331.412C223.593 331.412 224.774 330.435 224.774 328.905V322.157H223.669V323.287H223.593C223.174 322.513 222.425 322.037 221.46 322.037C219.67 322.037 218.566 323.427 218.566 325.344V325.356C218.566 327.273 219.664 328.645 221.435 328.645C222.375 328.645 223.149 328.219 223.581 327.464H223.682V328.848C223.682 329.857 222.952 330.435 221.727 330.435C220.743 330.435 220.134 330.066 220.013 329.546L220.007 329.54H218.864L218.852 329.546C219.023 330.669 220.077 331.412 221.727 331.412ZM221.676 327.667C220.407 327.667 219.696 326.715 219.696 325.356V325.344C219.696 323.985 220.407 323.014 221.676 323.014C222.939 323.014 223.708 323.985 223.708 325.344V325.356C223.708 326.715 222.946 327.667 221.676 327.667ZM229.565 329.121C231.513 329.121 232.719 327.775 232.719 325.585V325.572C232.719 323.376 231.513 322.037 229.565 322.037C227.616 322.037 226.41 323.376 226.41 325.572V325.585C226.41 327.775 227.616 329.121 229.565 329.121ZM229.565 328.143C228.27 328.143 227.54 327.197 227.54 325.585V325.572C227.54 323.954 228.27 323.014 229.565 323.014C230.86 323.014 231.59 323.954 231.59 325.572V325.585C231.59 327.197 230.86 328.143 229.565 328.143ZM234.819 325.953H235.872L235.98 319.834H234.711L234.819 325.953ZM235.352 329.114C235.866 329.114 236.228 328.746 236.228 328.232C236.228 327.711 235.866 327.343 235.352 327.343C234.838 327.343 234.47 327.711 234.47 328.232C234.47 328.746 234.838 329.114 235.352 329.114Z" fill="#3C3C43" fill-opacity="0.6"/>
<path d="M151.33 314H155.418V294.271H151.316L146.217 297.812V301.477L151.248 298.059H151.33V314ZM165.653 314H169.741V294.271H165.64L160.54 297.812V301.477L165.571 298.059H165.653V314ZM176.668 314.232C177.898 314.232 178.883 313.248 178.883 312.018C178.883 310.773 177.898 309.803 176.668 309.803C175.424 309.803 174.453 310.773 174.453 312.018C174.453 313.248 175.424 314.232 176.668 314.232ZM189.774 314.342C194.286 314.342 197.403 311.539 197.403 307.41V307.383C197.403 303.664 194.696 300.971 190.95 300.971C188.954 300.971 187.327 301.777 186.506 303.104H186.424L186.903 297.553H196.214V294.271H183.622L182.719 305.852H186.315C186.548 305.441 186.862 305.059 187.258 304.758C187.928 304.225 188.79 303.924 189.801 303.924C191.934 303.924 193.452 305.387 193.465 307.465V307.492C193.465 309.598 191.948 311.074 189.788 311.074C187.887 311.074 186.506 309.926 186.219 308.436L186.192 308.34H182.378L182.391 308.545C182.637 311.84 185.481 314.342 189.774 314.342ZM207.237 314H211.366V307.957L213.211 305.674L218.858 314H223.793L216.219 302.98L223.287 294.271H218.694L211.461 303.295H211.366V294.271H207.237V314ZM226.4 314H230.077V300.656H230.187L235.519 314H238.116L243.435 300.656H243.558V314H247.236V294.271H242.464L236.859 308.449H236.777L231.171 294.271H226.4V314Z" fill="black"/>
<path d="M235.337 437H236.26L236.968 434.983H239.771L240.479 437H241.401L238.804 429.954H237.935L235.337 437ZM238.33 431.092H238.408L239.512 434.236H237.227L238.33 431.092ZM243.257 437H244.116L246.065 431.736H245.166L243.726 436.072H243.648L242.207 431.736H241.309L243.257 437ZM249.063 437.093C250.303 437.093 251.055 436.39 251.236 435.677L251.245 435.638H250.396L250.376 435.682C250.235 435.999 249.795 436.336 249.082 436.336C248.145 436.336 247.544 435.701 247.52 434.612H251.309V434.28C251.309 432.708 250.44 431.644 249.009 431.644C247.578 431.644 246.651 432.757 246.651 434.383V434.388C246.651 436.038 247.559 437.093 249.063 437.093ZM249.004 432.4C249.781 432.4 250.357 432.894 250.445 433.934H247.534C247.627 432.933 248.223 432.4 249.004 432.4ZM252.549 437H253.399V433.738C253.399 432.967 253.975 432.454 254.786 432.454C254.971 432.454 255.132 432.474 255.308 432.503V431.678C255.225 431.663 255.044 431.644 254.883 431.644C254.17 431.644 253.677 431.966 253.477 432.518H253.399V431.736H252.549V437ZM257.725 437.093C258.433 437.093 258.985 436.785 259.317 436.224H259.395V437H260.245V433.396C260.245 432.303 259.527 431.644 258.243 431.644C257.12 431.644 256.319 432.2 256.182 433.025L256.177 433.055H257.027L257.032 433.04C257.168 432.63 257.584 432.396 258.213 432.396C259 432.396 259.395 432.747 259.395 433.396V433.875L257.886 433.968C256.661 434.041 255.967 434.583 255.967 435.521V435.53C255.967 436.487 256.724 437.093 257.725 437.093ZM256.836 435.511V435.501C256.836 434.979 257.188 434.695 257.989 434.646L259.395 434.559V435.037C259.395 435.789 258.765 436.355 257.901 436.355C257.291 436.355 256.836 436.043 256.836 435.511ZM263.887 438.855C265.323 438.855 266.231 438.104 266.231 436.927V431.736H265.381V432.605H265.323C265.001 432.01 264.424 431.644 263.682 431.644C262.305 431.644 261.456 432.713 261.456 434.188V434.197C261.456 435.672 262.3 436.727 263.663 436.727C264.385 436.727 264.981 436.399 265.313 435.818H265.391V436.883C265.391 437.659 264.83 438.104 263.887 438.104C263.131 438.104 262.662 437.82 262.569 437.42L262.564 437.415H261.685L261.675 437.42C261.807 438.284 262.618 438.855 263.887 438.855ZM263.848 435.975C262.872 435.975 262.325 435.242 262.325 434.197V434.188C262.325 433.143 262.872 432.396 263.848 432.396C264.82 432.396 265.411 433.143 265.411 434.188V434.197C265.411 435.242 264.825 435.975 263.848 435.975ZM269.884 437.093C271.124 437.093 271.876 436.39 272.056 435.677L272.066 435.638H271.217L271.197 435.682C271.055 435.999 270.616 436.336 269.903 436.336C268.966 436.336 268.365 435.701 268.341 434.612H272.13V434.28C272.13 432.708 271.261 431.644 269.83 431.644C268.399 431.644 267.471 432.757 267.471 434.383V434.388C267.471 436.038 268.38 437.093 269.884 437.093ZM269.825 432.4C270.601 432.4 271.178 432.894 271.265 433.934H268.355C268.448 432.933 269.044 432.4 269.825 432.4ZM278.048 437.093C278.78 437.093 279.366 436.746 279.688 436.16H279.767V437H280.616V429.646H279.767V432.566H279.688C279.4 432.005 278.771 431.644 278.048 431.644C276.71 431.644 275.841 432.713 275.841 434.363V434.373C275.841 436.014 276.715 437.093 278.048 437.093ZM278.243 436.341C277.281 436.341 276.71 435.599 276.71 434.373V434.363C276.71 433.138 277.281 432.396 278.243 432.396C279.2 432.396 279.786 433.147 279.786 434.363V434.373C279.786 435.589 279.2 436.341 278.243 436.341ZM282.618 430.721C282.941 430.721 283.204 430.457 283.204 430.135C283.204 429.812 282.941 429.549 282.618 429.549C282.296 429.549 282.032 429.812 282.032 430.135C282.032 430.457 282.296 430.721 282.618 430.721ZM282.189 437H283.038V431.736H282.189V437ZM286.368 437.093C287.565 437.093 288.478 436.443 288.478 435.506V435.496C288.478 434.744 287.999 434.314 287.008 434.075L286.198 433.88C285.577 433.729 285.314 433.504 285.314 433.147V433.138C285.314 432.674 285.773 432.352 286.398 432.352C287.033 432.352 287.443 432.64 287.555 433.055H288.39C288.273 432.195 287.506 431.644 286.403 431.644C285.284 431.644 284.445 432.303 284.445 433.177V433.182C284.445 433.938 284.889 434.368 285.875 434.603L286.691 434.798C287.34 434.954 287.609 435.203 287.609 435.56V435.569C287.609 436.048 287.106 436.385 286.398 436.385C285.724 436.385 285.304 436.097 285.162 435.657H284.293C284.391 436.526 285.197 437.093 286.368 437.093ZM291.539 437.039C291.705 437.039 291.867 437.02 292.033 436.99V436.268C291.876 436.282 291.793 436.287 291.642 436.287C291.095 436.287 290.88 436.038 290.88 435.418V432.439H292.033V431.736H290.88V430.374H290.001V431.736H289.171V432.439H290.001V435.633C290.001 436.639 290.455 437.039 291.539 437.039ZM294.669 437.093C295.377 437.093 295.929 436.785 296.261 436.224H296.339V437H297.189V433.396C297.189 432.303 296.471 431.644 295.187 431.644C294.064 431.644 293.263 432.2 293.126 433.025L293.122 433.055H293.971L293.976 433.04C294.113 432.63 294.528 432.396 295.158 432.396C295.944 432.396 296.339 432.747 296.339 433.396V433.875L294.831 433.968C293.605 434.041 292.912 434.583 292.912 435.521V435.53C292.912 436.487 293.668 437.093 294.669 437.093ZM293.781 435.511V435.501C293.781 434.979 294.132 434.695 294.933 434.646L296.339 434.559V435.037C296.339 435.789 295.71 436.355 294.845 436.355C294.235 436.355 293.781 436.043 293.781 435.511ZM298.664 437H299.513V433.885C299.513 432.962 300.046 432.396 300.885 432.396C301.725 432.396 302.116 432.85 302.116 433.797V437H302.965V433.592C302.965 432.342 302.306 431.644 301.125 431.644C300.348 431.644 299.855 431.971 299.591 432.527H299.513V431.736H298.664V437ZM306.579 437.093C307.844 437.093 308.552 436.414 308.766 435.462L308.776 435.408L307.936 435.413L307.927 435.442C307.731 436.028 307.282 436.341 306.574 436.341C305.637 436.341 305.031 435.564 305.031 434.354V434.344C305.031 433.157 305.627 432.396 306.574 432.396C307.331 432.396 307.8 432.815 307.931 433.333L307.936 433.348H308.781L308.776 433.318C308.62 432.381 307.853 431.644 306.574 431.644C305.099 431.644 304.162 432.708 304.162 434.344V434.354C304.162 436.023 305.104 437.093 306.579 437.093ZM312.092 437.093C313.332 437.093 314.084 436.39 314.265 435.677L314.274 435.638H313.425L313.405 435.682C313.264 435.999 312.824 436.336 312.111 436.336C311.174 436.336 310.573 435.701 310.549 434.612H314.338V434.28C314.338 432.708 313.469 431.644 312.038 431.644C310.607 431.644 309.68 432.757 309.68 434.383V434.388C309.68 436.038 310.588 437.093 312.092 437.093ZM312.033 432.4C312.809 432.4 313.386 432.894 313.474 433.934H310.563C310.656 432.933 311.252 432.4 312.033 432.4ZM318.313 438.758H319.162V436.17H319.24C319.528 436.731 320.158 437.093 320.881 437.093C322.219 437.093 323.088 436.023 323.088 434.373V434.363C323.088 432.723 322.214 431.644 320.881 431.644C320.149 431.644 319.563 431.99 319.24 432.576H319.162V431.736H318.313V438.758ZM320.686 436.341C319.729 436.341 319.143 435.589 319.143 434.373V434.363C319.143 433.147 319.729 432.396 320.686 432.396C321.648 432.396 322.219 433.138 322.219 434.363V434.373C322.219 435.599 321.648 436.341 320.686 436.341ZM326.487 437.093C327.727 437.093 328.479 436.39 328.659 435.677L328.669 435.638H327.82L327.8 435.682C327.659 435.999 327.219 436.336 326.506 436.336C325.569 436.336 324.968 435.701 324.944 434.612H328.733V434.28C328.733 432.708 327.864 431.644 326.433 431.644C325.002 431.644 324.075 432.757 324.075 434.383V434.388C324.075 436.038 324.983 437.093 326.487 437.093ZM326.428 432.4C327.204 432.4 327.781 432.894 327.868 433.934H324.958C325.051 432.933 325.647 432.4 326.428 432.4ZM329.973 437H330.823V433.738C330.823 432.967 331.399 432.454 332.209 432.454C332.395 432.454 332.556 432.474 332.732 432.503V431.678C332.649 431.663 332.468 431.644 332.307 431.644C331.594 431.644 331.101 431.966 330.901 432.518H330.823V431.736H329.973V437ZM338.382 437.093C339.114 437.093 339.7 436.746 340.022 436.16H340.1V437H340.95V429.646H340.1V432.566H340.022C339.734 432.005 339.104 431.644 338.382 431.644C337.044 431.644 336.174 432.713 336.174 434.363V434.373C336.174 436.014 337.049 437.093 338.382 437.093ZM338.577 436.341C337.615 436.341 337.044 435.599 337.044 434.373V434.363C337.044 433.138 337.615 432.396 338.577 432.396C339.534 432.396 340.12 433.147 340.12 434.363V434.373C340.12 435.589 339.534 436.341 338.577 436.341ZM343.948 437.093C344.656 437.093 345.208 436.785 345.54 436.224H345.618V437H346.468V433.396C346.468 432.303 345.75 431.644 344.466 431.644C343.343 431.644 342.542 432.2 342.405 433.025L342.4 433.055H343.25L343.255 433.04C343.391 432.63 343.806 432.396 344.436 432.396C345.222 432.396 345.618 432.747 345.618 433.396V433.875L344.109 433.968C342.884 434.041 342.19 434.583 342.19 435.521V435.53C342.19 436.487 342.947 437.093 343.948 437.093ZM343.059 435.511V435.501C343.059 434.979 343.411 434.695 344.212 434.646L345.618 434.559V435.037C345.618 435.789 344.988 436.355 344.124 436.355C343.513 436.355 343.059 436.043 343.059 435.511ZM348.196 438.846C349.129 438.846 349.563 438.504 349.998 437.322L352.054 431.736H351.16L349.72 436.067H349.642L348.196 431.736H347.288L349.236 437.005L349.139 437.317C348.948 437.923 348.655 438.143 348.172 438.143C348.055 438.143 347.923 438.138 347.82 438.118V438.816C347.937 438.836 348.084 438.846 348.196 438.846Z" fill="#3C3C43" fill-opacity="0.6"/>
<path d="M358.284 437.132C359.779 437.132 360.838 436.263 360.838 435.052V435.042C360.838 434.056 360.145 433.431 359.11 433.338V433.313C359.969 433.133 360.594 432.547 360.594 431.673V431.663C360.594 430.574 359.676 429.822 358.275 429.822C356.898 429.822 355.96 430.608 355.853 431.795L355.848 431.849H356.873L356.878 431.8C356.946 431.136 357.493 430.721 358.275 430.721C359.071 430.721 359.529 431.121 359.529 431.805V431.814C359.529 432.469 358.983 432.942 358.177 432.942H357.352V433.792H358.211C359.149 433.792 359.725 434.236 359.725 435.032V435.042C359.725 435.735 359.144 436.219 358.284 436.219C357.41 436.219 356.82 435.77 356.751 435.13L356.746 435.081H355.701L355.706 435.14C355.799 436.307 356.78 437.132 358.284 437.132ZM362.201 437H363.26V435.071L363.714 434.617L365.54 437H366.829L364.471 433.934L366.683 431.697H365.443L363.338 433.934H363.26V429.617H362.201V437ZM367.718 437H368.778V433.743C368.778 433.05 369.251 432.503 369.891 432.503C370.516 432.503 370.912 432.884 370.912 433.489V437H371.966V433.646C371.966 433.006 372.411 432.503 373.084 432.503C373.778 432.503 374.11 432.864 374.11 433.597V437H375.165V433.343C375.165 432.239 374.54 431.595 373.47 431.595C372.733 431.595 372.123 431.971 371.854 432.542H371.771C371.537 431.971 371.024 431.595 370.301 431.595C369.608 431.595 369.09 431.932 368.856 432.513H368.778V431.697H367.718V437Z" fill="#060606" fill-opacity="0.6"/>
<path d="M0 494.789L393 494.789" stroke="#E8E8E8"/>
<path d="M23.168 491H24.3105V487.731H26.6211C28.3413 487.731 29.5601 486.519 29.5601 484.779V484.767C29.5601 483.027 28.3413 481.84 26.6211 481.84H23.168V491ZM26.3291 482.856C27.6367 482.856 28.3921 483.573 28.3921 484.779V484.792C28.3921 485.998 27.6367 486.715 26.3291 486.715H24.3105V482.856H26.3291ZM33.8175 491.121C35.4298 491.121 36.4074 490.207 36.6422 489.28L36.6549 489.229H35.5504L35.525 489.286C35.3409 489.699 34.7697 490.137 33.8429 490.137C32.6241 490.137 31.8434 489.312 31.8116 487.896H36.7374V487.464C36.7374 485.42 35.6075 484.037 33.7477 484.037C31.8878 484.037 30.6818 485.484 30.6818 487.598V487.604C30.6818 489.75 31.8624 491.121 33.8175 491.121ZM33.7413 485.021C34.7506 485.021 35.4996 485.662 35.6139 487.014H31.8307C31.9513 485.712 32.7257 485.021 33.7413 485.021ZM38.3733 491H39.4778V486.76C39.4778 485.757 40.2268 485.09 41.2805 485.09C41.5217 485.09 41.7312 485.116 41.9597 485.154V484.081C41.8518 484.062 41.6169 484.037 41.4075 484.037C40.4807 484.037 39.8396 484.456 39.5794 485.173H39.4778V484.157H38.3733V491ZM44.0844 491H45.1889V485.071H46.744V484.157H45.1889V483.427C45.1889 482.678 45.5062 482.291 46.2933 482.291C46.4901 482.291 46.6742 482.297 46.8075 482.323V481.44C46.579 481.396 46.3378 481.377 46.0712 481.377C44.7699 481.377 44.0844 482.031 44.0844 483.396V484.157H42.9481V485.071H44.0844V491ZM50.7793 491.121C52.728 491.121 53.9341 489.775 53.9341 487.585V487.572C53.9341 485.376 52.728 484.037 50.7793 484.037C48.8306 484.037 47.6245 485.376 47.6245 487.572V487.585C47.6245 489.775 48.8306 491.121 50.7793 491.121ZM50.7793 490.143C49.4844 490.143 48.7544 489.197 48.7544 487.585V487.572C48.7544 485.954 49.4844 485.014 50.7793 485.014C52.0742 485.014 52.8042 485.954 52.8042 487.572V487.585C52.8042 489.197 52.0742 490.143 50.7793 490.143ZM55.57 491H56.6745V486.76C56.6745 485.757 57.4235 485.09 58.4772 485.09C58.7184 485.09 58.9279 485.116 59.1564 485.154V484.081C59.0485 484.062 58.8136 484.037 58.6041 484.037C57.6774 484.037 57.0363 484.456 56.776 485.173H56.6745V484.157H55.57V491ZM60.5701 491H61.6746V486.76C61.6746 485.795 62.3538 485.014 63.2488 485.014C64.1121 485.014 64.6707 485.541 64.6707 486.354V491H65.7752V486.601C65.7752 485.731 66.4036 485.014 67.3557 485.014C68.3206 485.014 68.784 485.516 68.784 486.525V491H69.8884V486.271C69.8884 484.836 69.1077 484.037 67.7112 484.037C66.7654 484.037 65.9846 484.513 65.6165 485.236H65.5149C65.1975 484.525 64.5501 484.037 63.6233 484.037C62.7283 484.037 62.0808 484.462 61.7761 485.198H61.6746V484.157H60.5701V491ZM73.6825 491.121C74.6029 491.121 75.3202 490.721 75.7519 489.991H75.8534V491H76.9579V486.315C76.9579 484.894 76.0248 484.037 74.3554 484.037C72.8954 484.037 71.8544 484.76 71.6767 485.833L71.6703 485.871H72.7748L72.7811 485.852C72.9589 485.319 73.4984 485.014 74.3173 485.014C75.3393 485.014 75.8534 485.471 75.8534 486.315V486.938L73.892 487.058C72.2987 487.153 71.3974 487.858 71.3974 489.077V489.089C71.3974 490.333 72.3812 491.121 73.6825 491.121ZM72.5272 489.064V489.051C72.5272 488.372 72.9843 488.004 74.0253 487.94L75.8534 487.826V488.448C75.8534 489.426 75.0346 490.162 73.911 490.162C73.1176 490.162 72.5272 489.756 72.5272 489.064ZM78.8985 491H80.003V486.95C80.003 485.75 80.6948 485.014 81.7866 485.014C82.8784 485.014 83.3863 485.604 83.3863 486.836V491H84.4907V486.569C84.4907 484.944 83.6338 484.037 82.0977 484.037C81.0884 484.037 80.4473 484.462 80.1045 485.186H80.003V484.157H78.8985V491ZM89.2116 491.121C90.8556 491.121 91.776 490.238 92.0553 489L92.068 488.931L90.9762 488.937L90.9635 488.975C90.7096 489.737 90.1256 490.143 89.2052 490.143C87.9865 490.143 87.1994 489.134 87.1994 487.56V487.547C87.1994 486.004 87.9738 485.014 89.2052 485.014C90.1891 485.014 90.7985 485.56 90.9699 486.233L90.9762 486.252H92.0744L92.068 486.214C91.8649 484.995 90.8683 484.037 89.2052 484.037C87.2882 484.037 86.0695 485.42 86.0695 487.547V487.56C86.0695 489.73 87.2946 491.121 89.2116 491.121ZM96.4016 491.121C98.0139 491.121 98.9915 490.207 99.2263 489.28L99.239 489.229H98.1346L98.1092 489.286C97.9251 489.699 97.3538 490.137 96.427 490.137C95.2083 490.137 94.4275 489.312 94.3958 487.896H99.3216V487.464C99.3216 485.42 98.1917 484.037 96.3318 484.037C94.472 484.037 93.2659 485.484 93.2659 487.598V487.604C93.2659 489.75 94.4466 491.121 96.4016 491.121ZM96.3255 485.021C97.3347 485.021 98.0838 485.662 98.198 487.014H94.4148C94.5354 485.712 95.3098 485.021 96.3255 485.021Z" fill="#3C3C43" fill-opacity="0.6"/>
<path d="M25.0659 519H26.145L28.2524 511.77H28.3286L30.436 519H31.5151L34.0098 509.84H32.8164L30.9946 517.286H30.9185L28.8682 509.84H27.7129L25.6626 517.286H25.5864L23.7646 509.84H22.5713L25.0659 519ZM37.6896 519.121C39.3019 519.121 40.2794 518.207 40.5143 517.28L40.527 517.229H39.4225L39.3971 517.286C39.213 517.699 38.6417 518.137 37.715 518.137C36.4962 518.137 35.7155 517.312 35.6837 515.896H40.6095V515.464C40.6095 513.42 39.4796 512.037 37.6198 512.037C35.7599 512.037 34.5538 513.484 34.5538 515.598V515.604C34.5538 517.75 35.7345 519.121 37.6896 519.121ZM37.6134 513.021C38.6227 513.021 39.3717 513.662 39.486 515.014H35.7028C35.8234 513.712 36.5978 513.021 37.6134 513.021ZM45.0383 519.121C46.6506 519.121 47.6282 518.207 47.863 517.28L47.8757 517.229H46.7712L46.7459 517.286C46.5618 517.699 45.9905 518.137 45.0637 518.137C43.845 518.137 43.0642 517.312 43.0325 515.896H47.9583V515.464C47.9583 513.42 46.8284 512.037 44.9685 512.037C43.1086 512.037 41.9026 513.484 41.9026 515.598V515.604C41.9026 517.75 43.0833 519.121 45.0383 519.121ZM44.9622 513.021C45.9714 513.021 46.7205 513.662 46.8347 515.014H43.0515C43.1721 513.712 43.9465 513.021 44.9622 513.021ZM49.6576 519H50.7621V516.404L51.4032 515.782L53.9677 519H55.3578L52.1776 515.033L55.161 512.157H53.8217L50.8637 515.147H50.7621V509.44H49.6576V519ZM56.6382 519H57.7427V509.44H56.6382V519ZM60.3688 521.399C61.5812 521.399 62.1461 520.955 62.7111 519.419L65.3834 512.157H64.2218L62.3493 517.788H62.2477L60.3688 512.157H59.1881L61.7208 519.006L61.5939 519.413C61.3463 520.2 60.9655 520.485 60.3371 520.485C60.1847 520.485 60.0133 520.479 59.88 520.454V521.361C60.0324 521.387 60.2228 521.399 60.3688 521.399ZM70.4833 519H71.6259V515.731H73.9364C75.6566 515.731 76.8754 514.519 76.8754 512.779V512.767C76.8754 511.027 75.6566 509.84 73.9364 509.84H70.4833V519ZM73.6444 510.856C74.952 510.856 75.7074 511.573 75.7074 512.779V512.792C75.7074 513.998 74.952 514.715 73.6444 514.715H71.6259V510.856H73.6444ZM81.1328 519.121C82.7451 519.121 83.7227 518.207 83.9575 517.28L83.9702 517.229H82.8657L82.8404 517.286C82.6563 517.699 82.085 518.137 81.1582 518.137C79.9395 518.137 79.1587 517.312 79.127 515.896H84.0528V515.464C84.0528 513.42 82.9229 512.037 81.063 512.037C79.2031 512.037 77.9971 513.484 77.9971 515.598V515.604C77.9971 517.75 79.1778 519.121 81.1328 519.121ZM81.0567 513.021C82.0659 513.021 82.815 513.662 82.9292 515.014H79.146C79.2666 513.712 80.041 513.021 81.0567 513.021ZM85.6886 519H86.7931V514.76C86.7931 513.757 87.5421 513.09 88.5959 513.09C88.8371 513.09 89.0465 513.116 89.2751 513.154V512.081C89.1671 512.062 88.9323 512.037 88.7228 512.037C87.796 512.037 87.1549 512.456 86.8947 513.173H86.7931V512.157H85.6886V519ZM91.3997 519H92.5042V513.071H94.0594V512.157H92.5042V511.427C92.5042 510.678 92.8216 510.291 93.6087 510.291C93.8055 510.291 93.9895 510.297 94.1228 510.323V509.44C93.8943 509.396 93.6531 509.377 93.3865 509.377C92.0852 509.377 91.3997 510.031 91.3997 511.396V512.157H90.2635V513.071H91.3997V519ZM98.0946 519.121C100.043 519.121 101.249 517.775 101.249 515.585V515.572C101.249 513.376 100.043 512.037 98.0946 512.037C96.1459 512.037 94.9398 513.376 94.9398 515.572V515.585C94.9398 517.775 96.1459 519.121 98.0946 519.121ZM98.0946 518.143C96.7997 518.143 96.0697 517.197 96.0697 515.585V515.572C96.0697 513.954 96.7997 513.014 98.0946 513.014C99.3896 513.014 100.12 513.954 100.12 515.572V515.585C100.12 517.197 99.3896 518.143 98.0946 518.143ZM102.885 519H103.99V514.76C103.99 513.757 104.739 513.09 105.793 513.09C106.034 513.09 106.243 513.116 106.472 513.154V512.081C106.364 512.062 106.129 512.037 105.919 512.037C104.993 512.037 104.352 512.456 104.091 513.173H103.99V512.157H102.885V519ZM107.885 519H108.99V514.76C108.99 513.795 109.669 513.014 110.564 513.014C111.427 513.014 111.986 513.541 111.986 514.354V519H113.09V514.601C113.09 513.731 113.719 513.014 114.671 513.014C115.636 513.014 116.099 513.516 116.099 514.525V519H117.204V514.271C117.204 512.836 116.423 512.037 115.027 512.037C114.081 512.037 113.3 512.513 112.932 513.236H112.83C112.513 512.525 111.865 512.037 110.939 512.037C110.044 512.037 109.396 512.462 109.091 513.198H108.99V512.157H107.885V519ZM120.998 519.121C121.918 519.121 122.636 518.721 123.067 517.991H123.169V519H124.273V514.315C124.273 512.894 123.34 512.037 121.671 512.037C120.211 512.037 119.17 512.76 118.992 513.833L118.986 513.871H120.09L120.096 513.852C120.274 513.319 120.814 513.014 121.633 513.014C122.655 513.014 123.169 513.471 123.169 514.315V514.938L121.207 515.058C119.614 515.153 118.713 515.858 118.713 517.077V517.089C118.713 518.333 119.697 519.121 120.998 519.121ZM119.843 517.064V517.051C119.843 516.372 120.3 516.004 121.341 515.94L123.169 515.826V516.448C123.169 517.426 122.35 518.162 121.226 518.162C120.433 518.162 119.843 517.756 119.843 517.064ZM126.214 519H127.318V514.95C127.318 513.75 128.01 513.014 129.102 513.014C130.194 513.014 130.702 513.604 130.702 514.836V519H131.806V514.569C131.806 512.944 130.949 512.037 129.413 512.037C128.404 512.037 127.763 512.462 127.42 513.186H127.318V512.157H126.214V519ZM136.527 519.121C138.171 519.121 139.091 518.238 139.371 517L139.383 516.931L138.292 516.937L138.279 516.975C138.025 517.737 137.441 518.143 136.521 518.143C135.302 518.143 134.515 517.134 134.515 515.56V515.547C134.515 514.004 135.289 513.014 136.521 513.014C137.504 513.014 138.114 513.56 138.285 514.233L138.292 514.252H139.39L139.383 514.214C139.18 512.995 138.184 512.037 136.521 512.037C134.604 512.037 133.385 513.42 133.385 515.547V515.56C133.385 517.73 134.61 519.121 136.527 519.121ZM143.717 519.121C145.329 519.121 146.307 518.207 146.542 517.28L146.554 517.229H145.45L145.424 517.286C145.24 517.699 144.669 518.137 143.742 518.137C142.524 518.137 141.743 517.312 141.711 515.896H146.637V515.464C146.637 513.42 145.507 512.037 143.647 512.037C141.787 512.037 140.581 513.484 140.581 515.598V515.604C140.581 517.75 141.762 519.121 143.717 519.121ZM143.641 513.021C144.65 513.021 145.399 513.662 145.513 515.014H141.73C141.851 513.712 142.625 513.021 143.641 513.021Z" fill="#3C3C43" fill-opacity="0.6"/>
<path d="M31.8271 675.892V674.539C31.9821 674.675 32.1667 674.798 32.3809 674.908C32.5996 675.017 32.8275 675.111 33.0645 675.188C33.306 675.261 33.5475 675.318 33.7891 675.359C34.0306 675.4 34.2539 675.42 34.459 675.42C35.1654 675.42 35.6917 675.291 36.0381 675.031C36.389 674.766 36.5645 674.388 36.5645 673.896C36.5645 673.632 36.5052 673.402 36.3867 673.206C36.2728 673.01 36.1133 672.832 35.9082 672.672C35.7031 672.508 35.4593 672.353 35.1768 672.208C34.8988 672.057 34.598 671.9 34.2744 671.736C33.9326 671.563 33.6136 671.387 33.3174 671.21C33.0212 671.032 32.7637 670.836 32.5449 670.622C32.3262 670.407 32.153 670.166 32.0254 669.897C31.9023 669.624 31.8408 669.305 31.8408 668.94C31.8408 668.493 31.9388 668.106 32.1348 667.778C32.3307 667.445 32.5882 667.172 32.9072 666.958C33.2262 666.743 33.5885 666.584 33.9941 666.479C34.4043 666.374 34.8213 666.322 35.2451 666.322C36.2113 666.322 36.9154 666.438 37.3574 666.67V667.962C36.7786 667.561 36.0358 667.361 35.1289 667.361C34.8783 667.361 34.6276 667.388 34.377 667.443C34.1263 667.493 33.903 667.577 33.707 667.696C33.5111 667.814 33.3516 667.967 33.2285 668.154C33.1055 668.341 33.0439 668.569 33.0439 668.837C33.0439 669.088 33.0895 669.305 33.1807 669.487C33.2764 669.669 33.4154 669.835 33.5977 669.986C33.7799 670.136 34.001 670.282 34.2607 670.423C34.5251 670.565 34.8281 670.72 35.1699 670.888C35.5208 671.061 35.8535 671.244 36.168 671.435C36.4824 671.626 36.7581 671.838 36.9951 672.071C37.2321 672.303 37.4189 672.561 37.5557 672.843C37.6969 673.126 37.7676 673.449 37.7676 673.814C37.7676 674.297 37.6719 674.707 37.4805 675.044C37.2936 675.377 37.0384 675.648 36.7148 675.858C36.3958 676.068 36.0267 676.218 35.6074 676.309C35.1882 676.405 34.7461 676.453 34.2812 676.453C34.1263 676.453 33.9349 676.439 33.707 676.412C33.4792 676.389 33.2467 676.352 33.0098 676.302C32.7728 676.257 32.5472 676.2 32.333 676.131C32.1234 676.058 31.9548 675.979 31.8271 675.892ZM45.2324 676.289H44.1113V675.181H44.084C43.6191 676.029 42.8991 676.453 41.9238 676.453C40.2559 676.453 39.4219 675.459 39.4219 673.472V669.289H40.5361V673.294C40.5361 674.771 41.1012 675.509 42.2314 675.509C42.7783 675.509 43.2272 675.309 43.5781 674.908C43.9336 674.502 44.1113 673.974 44.1113 673.322V669.289H45.2324V676.289Z" fill="#9EA1A7"/>
<path d="M91.7773 676.289H90.6357V669.712C90.6357 669.193 90.6676 668.557 90.7314 667.805H90.7041C90.5947 668.247 90.4967 668.564 90.4102 668.755L87.0605 676.289H86.5L83.1572 668.81C83.0615 668.591 82.9635 668.256 82.8633 667.805H82.8359C82.8724 668.197 82.8906 668.837 82.8906 669.726V676.289H81.7832V666.486H83.3008L86.3086 673.322C86.541 673.846 86.6914 674.238 86.7598 674.498H86.8008C86.9967 673.96 87.154 673.559 87.2725 673.294L90.3418 666.486H91.7773V676.289ZM97.1367 676.453C96.1022 676.453 95.2751 676.127 94.6553 675.475C94.04 674.819 93.7324 673.951 93.7324 672.871C93.7324 671.695 94.0537 670.777 94.6963 670.116C95.3389 669.455 96.207 669.125 97.3008 669.125C98.3444 669.125 99.1579 669.446 99.7412 670.088C100.329 670.731 100.623 671.622 100.623 672.761C100.623 673.878 100.306 674.773 99.6729 675.448C99.0439 676.118 98.1986 676.453 97.1367 676.453ZM97.2188 670.068C96.4987 670.068 95.929 670.314 95.5098 670.806C95.0905 671.294 94.8809 671.968 94.8809 672.83C94.8809 673.659 95.0928 674.313 95.5166 674.792C95.9404 675.27 96.5078 675.509 97.2188 675.509C97.9434 675.509 98.4993 675.275 98.8867 674.805C99.2786 674.336 99.4746 673.668 99.4746 672.802C99.4746 671.927 99.2786 671.253 98.8867 670.779C98.4993 670.305 97.9434 670.068 97.2188 670.068Z" fill="#9EA1A7"/>
<path d="M142.573 666.868H139.743V675.632H138.595V666.868H135.771V665.829H142.573V666.868ZM149.628 675.632H148.507V674.525H148.479C148.015 675.372 147.295 675.796 146.319 675.796C144.651 675.796 143.817 674.803 143.817 672.816V668.632H144.932V672.638C144.932 674.114 145.497 674.853 146.627 674.853C147.174 674.853 147.623 674.652 147.974 674.251C148.329 673.846 148.507 673.317 148.507 672.665V668.632H149.628V675.632Z" fill="#9EA1A7"/>
<path d="M198.846 665.829L196.078 675.632H194.731L192.714 668.468C192.628 668.163 192.575 667.83 192.557 667.47H192.53C192.502 667.807 192.443 668.135 192.352 668.454L190.322 675.632H188.989L186.118 665.829H187.382L189.467 673.349C189.554 673.663 189.609 673.991 189.631 674.333H189.666C189.688 674.092 189.759 673.763 189.877 673.349L192.044 665.829H193.145L195.223 673.403C195.296 673.663 195.351 673.969 195.387 674.319H195.415C195.433 674.082 195.494 673.768 195.599 673.376L197.602 665.829H198.846ZM205.238 672.412H200.295C200.314 673.192 200.523 673.793 200.924 674.217C201.325 674.641 201.877 674.853 202.579 674.853C203.367 674.853 204.092 674.593 204.752 674.073V675.126C204.137 675.573 203.324 675.796 202.312 675.796C201.323 675.796 200.546 675.479 199.981 674.846C199.416 674.208 199.133 673.312 199.133 672.159C199.133 671.07 199.441 670.184 200.056 669.5C200.676 668.812 201.444 668.468 202.36 668.468C203.276 668.468 203.985 668.764 204.486 669.357C204.987 669.949 205.238 670.772 205.238 671.824V672.412ZM204.089 671.462C204.085 670.815 203.928 670.311 203.618 669.951C203.312 669.591 202.886 669.411 202.339 669.411C201.811 669.411 201.362 669.6 200.993 669.979C200.624 670.357 200.396 670.851 200.309 671.462H204.089Z" fill="#9EA1A7"/>
<path d="M246.85 666.868H244.02V675.632H242.872V666.868H240.048V665.829H246.85V666.868ZM254.055 675.632H252.934V671.599C252.934 670.14 252.392 669.411 251.307 669.411C250.76 669.411 250.3 669.623 249.926 670.047C249.553 670.466 249.366 671.006 249.366 671.667V675.632H248.245V665.269H249.366V669.794H249.393C249.931 668.91 250.696 668.468 251.69 668.468C253.267 668.468 254.055 669.418 254.055 671.318V675.632Z" fill="#9EA1A7"/>
<path d="M301.5 666.868H297.672V670.259H301.213V671.291H297.672V675.632H296.524V665.829H301.5V666.868ZM306.86 669.767C306.664 669.616 306.381 669.541 306.012 669.541C305.534 669.541 305.133 669.767 304.809 670.218C304.49 670.669 304.331 671.284 304.331 672.064V675.632H303.209V668.632H304.331V670.074H304.358C304.517 669.582 304.761 669.199 305.089 668.926C305.417 668.648 305.784 668.509 306.19 668.509C306.482 668.509 306.705 668.541 306.86 668.605V669.767Z" fill="#9EA1A7"/>
<path d="M346.924 675.235V673.882C347.079 674.019 347.264 674.142 347.478 674.251C347.697 674.36 347.925 674.454 348.162 674.531C348.403 674.604 348.645 674.661 348.886 674.702C349.128 674.743 349.351 674.764 349.556 674.764C350.263 674.764 350.789 674.634 351.135 674.374C351.486 674.11 351.662 673.732 351.662 673.239C351.662 672.975 351.602 672.745 351.484 672.549C351.37 672.353 351.21 672.175 351.005 672.016C350.8 671.852 350.556 671.697 350.274 671.551C349.996 671.401 349.695 671.243 349.372 671.079C349.03 670.906 348.711 670.731 348.415 670.553C348.118 670.375 347.861 670.179 347.642 669.965C347.423 669.751 347.25 669.509 347.123 669.24C347 668.967 346.938 668.648 346.938 668.283C346.938 667.837 347.036 667.449 347.232 667.121C347.428 666.789 347.685 666.515 348.004 666.301C348.323 666.087 348.686 665.927 349.091 665.822C349.501 665.718 349.918 665.665 350.342 665.665C351.308 665.665 352.013 665.781 352.455 666.014V667.306C351.876 666.905 351.133 666.704 350.226 666.704C349.975 666.704 349.725 666.732 349.474 666.786C349.223 666.836 349 666.921 348.804 667.039C348.608 667.158 348.449 667.31 348.326 667.497C348.203 667.684 348.141 667.912 348.141 668.181C348.141 668.431 348.187 668.648 348.278 668.83C348.374 669.013 348.513 669.179 348.695 669.329C348.877 669.48 349.098 669.625 349.358 669.767C349.622 669.908 349.925 670.063 350.267 670.232C350.618 670.405 350.951 670.587 351.265 670.778C351.58 670.97 351.855 671.182 352.092 671.414C352.329 671.647 352.516 671.904 352.653 672.187C352.794 672.469 352.865 672.793 352.865 673.157C352.865 673.64 352.769 674.051 352.578 674.388C352.391 674.721 352.136 674.992 351.812 675.201C351.493 675.411 351.124 675.561 350.705 675.652C350.285 675.748 349.843 675.796 349.378 675.796C349.223 675.796 349.032 675.782 348.804 675.755C348.576 675.732 348.344 675.696 348.107 675.646C347.87 675.6 347.644 675.543 347.43 675.475C347.221 675.402 347.052 675.322 346.924 675.235ZM359.68 675.632H358.559V674.538H358.532C358.044 675.377 357.326 675.796 356.378 675.796C355.681 675.796 355.134 675.611 354.738 675.242C354.346 674.873 354.15 674.383 354.15 673.773C354.15 672.465 354.92 671.704 356.46 671.489L358.559 671.195C358.559 670.006 358.078 669.411 357.117 669.411C356.274 669.411 355.513 669.698 354.833 670.273V669.124C355.522 668.687 356.315 668.468 357.212 668.468C358.858 668.468 359.68 669.338 359.68 671.079V675.632ZM358.559 672.091L356.871 672.323C356.351 672.396 355.959 672.526 355.695 672.713C355.431 672.895 355.298 673.221 355.298 673.691C355.298 674.032 355.419 674.313 355.661 674.531C355.907 674.746 356.233 674.853 356.638 674.853C357.194 674.853 357.652 674.659 358.012 674.272C358.377 673.88 358.559 673.385 358.559 672.788V672.091Z" fill="#9EA1A7"/>
<path d="M37.1553 537H36.3413C33.5799 537 31.3413 538.47 31.3413 540.283V645.436C31.3413 647.249 33.5799 648.719 36.3413 648.719H37.1553C39.9167 648.719 42.1553 647.249 42.1553 645.436V540.283C42.1553 538.47 39.9167 537 37.1553 537Z" fill="#E2E6ED"/>
<path d="M90.1451 537H89.3311C86.5696 537 84.3311 538.47 84.3311 540.283V645.436C84.3311 647.249 86.5696 648.719 89.3311 648.719H90.1451C92.9065 648.719 95.1451 647.249 95.1451 645.436V540.283C95.1451 538.47 92.9065 537 90.1451 537Z" fill="#E2E6ED"/>
<path d="M142.054 537H141.24C138.479 537 136.24 538.47 136.24 540.283V645.436C136.24 647.249 138.479 648.719 141.24 648.719H142.054C144.816 648.719 147.054 647.249 147.054 645.436V540.283C147.054 538.47 144.816 537 142.054 537Z" fill="#E2E6ED"/>
<path d="M195.583 537H194.769C192.008 537 189.769 538.47 189.769 540.283V645.436C189.769 647.249 192.008 648.719 194.769 648.719H195.583C198.344 648.719 200.583 647.249 200.583 645.436V540.283C200.583 538.47 198.344 537 195.583 537Z" fill="#E2E6ED"/>
<path d="M195.583 621.824H194.769C192.008 621.824 189.769 623.293 189.769 625.107V645.435C189.769 647.249 192.008 648.719 194.769 648.719H195.583C198.344 648.719 200.583 647.249 200.583 645.435V625.107C200.583 623.293 198.344 621.824 195.583 621.824Z" fill="url(#paint1_linear_8_61)"/>
<path d="M246.953 537H246.139C243.378 537 241.139 538.47 241.139 540.283V645.436C241.139 647.249 243.378 648.719 246.139 648.719H246.953C249.715 648.719 251.953 647.249 251.953 645.436V540.283C251.953 538.47 249.715 537 246.953 537Z" fill="#E2E6ED"/>
<path d="M246.953 586.653H246.139C243.378 586.653 241.139 588.123 241.139 589.937V645.437C241.139 647.25 243.378 648.72 246.139 648.72H246.953C249.715 648.72 251.953 647.25 251.953 645.437V589.937C251.953 588.123 249.715 586.653 246.953 586.653Z" fill="#6BFFDC"/>
<path d="M246.953 586.653H246.139C243.378 586.653 241.139 588.123 241.139 589.937V645.437C241.139 647.25 243.378 648.72 246.139 648.72H246.953C249.715 648.72 251.953 647.25 251.953 645.437V589.937C251.953 588.123 249.715 586.653 246.953 586.653Z" fill="url(#paint2_linear_8_61)"/>
<path d="M300.814 537.185H300C297.239 537.185 295 538.654 295 540.468V645.621C295 647.434 297.239 648.904 300 648.904H300.814C303.575 648.904 305.814 647.434 305.814 645.621V540.468C305.814 538.654 303.575 537.185 300.814 537.185Z" fill="#E2E6ED"/>
<path d="M300.814 599.251H300C297.239 599.251 295 600.721 295 602.534V645.621C295 647.434 297.239 648.904 300 648.904H300.814C303.575 648.904 305.814 647.434 305.814 645.621V602.534C305.814 600.721 303.575 599.251 300.814 599.251Z" fill="#6BFFDC"/>
<path d="M300.814 599.251H300C297.239 599.251 295 600.721 295 602.534V645.621C295 647.434 297.239 648.904 300 648.904H300.814C303.575 648.904 305.814 647.434 305.814 645.621V602.534C305.814 600.721 303.575 599.251 300.814 599.251Z" fill="url(#paint3_linear_8_61)"/>
<path d="M355.392 537H354.578C351.817 537 349.578 538.47 349.578 540.283V645.436C349.578 647.249 351.817 648.719 354.578 648.719H355.392C358.154 648.719 360.392 647.249 360.392 645.436V540.283C360.392 538.47 358.154 537 355.392 537Z" fill="#E2E6ED"/>
<path d="M355.392 578.377H354.578C351.817 578.377 349.578 579.847 349.578 581.66V645.435C349.578 647.249 351.817 648.719 354.578 648.719H355.392C358.154 648.719 360.392 647.249 360.392 645.435V581.66C360.392 579.847 358.154 578.377 355.392 578.377Z" fill="#6BFFDC"/>
<path d="M355.392 578.377H354.578C351.817 578.377 349.578 579.847 349.578 581.66V645.435C349.578 647.249 351.817 648.719 354.578 648.719H355.392C358.154 648.719 360.392 647.249 360.392 645.435V581.66C360.392 579.847 358.154 578.377 355.392 578.377Z" fill="url(#paint4_linear_8_61)"/>
<g opacity="0.2" filter="url(#filter0_d_8_61)">
<rect x="31" y="697" width="315" height="150" rx="20" fill="url(#paint5_linear_8_61)"/>
</g>
<path d="M51.1523 730H52.5293L53.3086 727.715H56.5664L57.3398 730H58.7168L55.6465 721.545H54.2285L51.1523 730ZM54.9258 722.945H54.9492L56.209 726.66H53.6602L54.9258 722.945ZM60.6914 730H62.0508L64.2598 723.836H62.9414L61.3945 728.764H61.3652L59.8184 723.836H58.4707L60.6914 730ZM67.3828 730.123C68.877 730.123 69.8262 729.232 70.0254 728.254L70.0371 728.189H68.8359L68.8184 728.236C68.6602 728.699 68.1621 729.086 67.4121 729.086C66.4043 729.086 65.7656 728.406 65.7422 727.24H70.1074V726.812C70.1074 724.961 69.0469 723.719 67.3184 723.719C65.5898 723.719 64.4766 725.008 64.4766 726.936V726.941C64.4766 728.887 65.5723 730.123 67.3828 730.123ZM67.3242 724.756C68.1504 724.756 68.748 725.277 68.8535 726.344H65.7598C65.8711 725.312 66.5039 724.756 67.3242 724.756ZM71.0918 730H72.3574V726.326C72.3574 725.406 72.8613 724.873 73.6758 724.873C73.9219 724.873 74.1445 724.902 74.2441 724.943V723.766C74.1445 723.748 73.9863 723.719 73.8047 723.719C73.1016 723.719 72.5859 724.17 72.3867 724.891H72.3574V723.836H71.0918V730ZM76.7109 730.111C77.5254 730.111 78.2402 729.689 78.5977 729.027H78.6211V730H79.8926V725.752C79.8926 724.516 78.9375 723.719 77.4316 723.719C75.9141 723.719 74.9941 724.533 74.9062 725.594L74.9004 725.658H76.0957L76.1074 725.605C76.2129 725.113 76.6641 724.768 77.3965 724.768C78.1816 724.768 78.6211 725.178 78.6211 725.857V726.32L76.9453 726.42C75.4863 726.508 74.6543 727.164 74.6543 728.236V728.248C74.6543 729.355 75.4805 730.111 76.7109 730.111ZM75.9316 728.219V728.207C75.9316 727.686 76.3535 727.352 77.1152 727.305L78.6211 727.211V727.691C78.6211 728.494 77.9473 729.098 77.0566 729.098C76.377 729.098 75.9316 728.758 75.9316 728.219ZM83.8242 732.174C85.5645 732.174 86.6543 731.236 86.6543 729.83V723.836H85.3828V724.885H85.3535C84.9902 724.188 84.3105 723.719 83.4434 723.719C81.8789 723.719 80.8477 724.932 80.8477 726.865V726.871C80.8477 728.793 81.8672 730.006 83.4141 730.006C84.2988 730.006 85.002 729.578 85.3535 728.91H85.3828V729.754C85.3828 730.615 84.8262 731.154 83.8184 731.154C83.0273 731.154 82.4941 730.885 82.3242 730.492L82.3008 730.445H81.0469L81.0527 730.498C81.2402 731.441 82.2422 732.174 83.8242 732.174ZM83.7715 728.975C82.7695 728.975 82.1426 728.178 82.1426 726.889V726.883C82.1426 725.611 82.7695 724.803 83.7715 724.803C84.7324 724.803 85.3828 725.617 85.3828 726.883V726.889C85.3828 728.16 84.7383 728.975 83.7715 728.975ZM90.5391 730.123C92.0332 730.123 92.9824 729.232 93.1816 728.254L93.1934 728.189H91.9922L91.9746 728.236C91.8164 728.699 91.3184 729.086 90.5684 729.086C89.5605 729.086 88.9219 728.406 88.8984 727.24H93.2637V726.812C93.2637 724.961 92.2031 723.719 90.4746 723.719C88.7461 723.719 87.6328 725.008 87.6328 726.936V726.941C87.6328 728.887 88.7285 730.123 90.5391 730.123ZM90.4805 724.756C91.3066 724.756 91.9043 725.277 92.0098 726.344H88.916C89.0273 725.312 89.6602 724.756 90.4805 724.756ZM96.8379 730H98.1504V726.256H102.492V730H103.805V721.545H102.492V725.119H98.1504V721.545H96.8379V730ZM107.836 730.123C109.33 730.123 110.279 729.232 110.479 728.254L110.49 728.189H109.289L109.271 728.236C109.113 728.699 108.615 729.086 107.865 729.086C106.857 729.086 106.219 728.406 106.195 727.24H110.561V726.812C110.561 724.961 109.5 723.719 107.771 723.719C106.043 723.719 104.93 725.008 104.93 726.936V726.941C104.93 728.887 106.025 730.123 107.836 730.123ZM107.777 724.756C108.604 724.756 109.201 725.277 109.307 726.344H106.213C106.324 725.312 106.957 724.756 107.777 724.756ZM113.355 730.111C114.17 730.111 114.885 729.689 115.242 729.027H115.266V730H116.537V725.752C116.537 724.516 115.582 723.719 114.076 723.719C112.559 723.719 111.639 724.533 111.551 725.594L111.545 725.658H112.74L112.752 725.605C112.857 725.113 113.309 724.768 114.041 724.768C114.826 724.768 115.266 725.178 115.266 725.857V726.32L113.59 726.42C112.131 726.508 111.299 727.164 111.299 728.236V728.248C111.299 729.355 112.125 730.111 113.355 730.111ZM112.576 728.219V728.207C112.576 727.686 112.998 727.352 113.76 727.305L115.266 727.211V727.691C115.266 728.494 114.592 729.098 113.701 729.098C113.021 729.098 112.576 728.758 112.576 728.219ZM117.768 730H119.033V726.326C119.033 725.406 119.537 724.873 120.352 724.873C120.598 724.873 120.82 724.902 120.92 724.943V723.766C120.82 723.748 120.662 723.719 120.48 723.719C119.777 723.719 119.262 724.17 119.062 724.891H119.033V723.836H117.768V730ZM124.137 730.123C124.395 730.123 124.635 730.094 124.781 730.07V729.092C124.688 729.104 124.576 729.115 124.441 729.115C123.908 729.115 123.627 728.928 123.627 728.301V724.844H124.781V723.836H123.627V722.23H122.332V723.836H121.447V724.844H122.332V728.377C122.332 729.607 122.918 730.123 124.137 730.123ZM128.42 730H129.732V726.754H131.537L133.26 730H134.771L132.879 726.555C133.893 726.209 134.52 725.295 134.52 724.146V724.135C134.52 722.547 133.43 721.545 131.701 721.545H128.42V730ZM129.732 725.676V722.646H131.537C132.545 722.646 133.166 723.209 133.166 724.146V724.158C133.166 725.119 132.586 725.676 131.572 725.676H129.732ZM137.309 730.111C138.123 730.111 138.838 729.689 139.195 729.027H139.219V730H140.49V725.752C140.49 724.516 139.535 723.719 138.029 723.719C136.512 723.719 135.592 724.533 135.504 725.594L135.498 725.658H136.693L136.705 725.605C136.811 725.113 137.262 724.768 137.994 724.768C138.779 724.768 139.219 725.178 139.219 725.857V726.32L137.543 726.42C136.084 726.508 135.252 727.164 135.252 728.236V728.248C135.252 729.355 136.078 730.111 137.309 730.111ZM136.529 728.219V728.207C136.529 727.686 136.951 727.352 137.713 727.305L139.219 727.211V727.691C139.219 728.494 138.545 729.098 137.654 729.098C136.975 729.098 136.529 728.758 136.529 728.219ZM143.883 730.123C144.141 730.123 144.381 730.094 144.527 730.07V729.092C144.434 729.104 144.322 729.115 144.188 729.115C143.654 729.115 143.373 728.928 143.373 728.301V724.844H144.527V723.836H143.373V722.23H142.078V723.836H141.193V724.844H142.078V728.377C142.078 729.607 142.664 730.123 143.883 730.123ZM148.055 730.123C149.549 730.123 150.498 729.232 150.697 728.254L150.709 728.189H149.508L149.49 728.236C149.332 728.699 148.834 729.086 148.084 729.086C147.076 729.086 146.438 728.406 146.414 727.24H150.779V726.812C150.779 724.961 149.719 723.719 147.99 723.719C146.262 723.719 145.148 725.008 145.148 726.936V726.941C145.148 728.887 146.244 730.123 148.055 730.123ZM147.996 724.756C148.822 724.756 149.42 725.277 149.525 726.344H146.432C146.543 725.312 147.176 724.756 147.996 724.756Z" fill="#1D1617"/>
<path d="M52.2646 755H54.1104L58.3281 746.605V745.136H51.4648V746.578H56.5918V746.612L52.2646 755ZM63.3047 755.171C65.5605 755.171 67.1396 753.995 67.1396 752.313V752.3C67.1396 751.049 66.2236 750.078 64.918 749.812V749.771C66.0391 749.47 66.7773 748.649 66.7773 747.597V747.583C66.7773 746.072 65.3418 744.965 63.3047 744.965C61.2744 744.965 59.832 746.072 59.832 747.583V747.597C59.832 748.649 60.5703 749.47 61.6914 749.771V749.812C60.3857 750.078 59.4766 751.049 59.4766 752.3V752.313C59.4766 753.995 61.0488 755.171 63.3047 755.171ZM63.3047 749.21C62.2793 749.21 61.5752 748.615 61.5752 747.761V747.747C61.5752 746.893 62.2861 746.298 63.3047 746.298C64.3232 746.298 65.0342 746.893 65.0342 747.747V747.761C65.0342 748.615 64.3301 749.21 63.3047 749.21ZM63.3047 753.824C62.1289 753.824 61.2881 753.147 61.2881 752.204V752.19C61.2881 751.24 62.1152 750.557 63.3047 750.557C64.4941 750.557 65.3213 751.24 65.3213 752.19V752.204C65.3213 753.147 64.4873 753.824 63.3047 753.824ZM71.3916 755H75.5273C77.6328 755 78.9111 753.934 78.9111 752.211V752.197C78.9111 750.898 77.9678 749.928 76.5801 749.805V749.771C77.6396 749.627 78.4395 748.677 78.4395 747.617V747.604C78.4395 746.106 77.2842 745.136 75.4863 745.136H71.3916V755ZM75.042 746.51C76.0879 746.51 76.6963 746.988 76.6963 747.843V747.856C76.6963 748.786 76.0127 749.306 74.7412 749.306H73.1553V746.51H75.042ZM75.0215 750.584C76.4023 750.584 77.1133 751.104 77.1133 752.095V752.108C77.1133 753.1 76.416 753.626 75.124 753.626H73.1553V750.584H75.0215ZM80.1689 755H81.9326V751.739H83.9697C85.9658 751.739 87.3262 750.413 87.3262 748.444V748.431C87.3262 746.455 85.9658 745.136 83.9697 745.136H80.1689V755ZM83.5322 746.578C84.7969 746.578 85.5352 747.255 85.5352 748.438V748.451C85.5352 749.634 84.7969 750.317 83.5322 750.317H81.9326V746.578H83.5322ZM88.6182 755H90.2109V747.986H90.2588L93.1025 755H94.2988L97.1426 747.986H97.1973V755H98.7832V745.136H96.7461L93.7246 752.669H93.6768L90.6553 745.136H88.6182V755Z" fill="url(#paint6_linear_8_61)"/>
<path opacity="0.2" d="M31 812.5L38.5 805L43.5 812.5L47 808H49.5L58.5 796.5L61.5 808L64 802H66.5L72 784.5L78.5 802H82.5L84.5 796.5L94 812.5L99 802H106L111 782.5L114 802H120.5L122 798H126L128.5 793L130 791L133 793L135 788L144.5 769.5L152.5 788H156.5L161.5 793L169 788H179.5L188.5 757L195 788H197L198.5 785H200.5L202 783.5L203 781.5L205.5 784.5L208 788H213L218.5 783.5L220.5 788L226.5 768L233.5 788H236V784.5L243 799V785H252L260 809.5L264 785H274.5L277.5 782.5L279.5 785L282 782.5L288.5 791L294 795V798L302.5 812.5L309 788H318L322 778.5L325 781.5L327.5 769.5L338.5 791H346" stroke="url(#paint7_linear_8_61)" stroke-width="1.2" stroke-linecap="round" stroke-linejoin="round"/>
<path d="M31 812.5L38.5 805L43.5 812.5L47 808H49.5L58.5 796.5L61.5 808L64 802H66.5L72 784.5L78.5 802H82.5L84.5 796.5L94 812.5L99 802H106L111 782.5L114 802H120.5L122 798H126L128.5 793L130 791L133 793L135 788L144.5 769.5L152.5 788H156.5L161.5 793L169 788H179.5L188.5 757L195 788H197L198.5 785H200.5L202 783.5L203 781.5L205.5 784.5L208 788H213L218.5 783.5L220.5 788L226.5 768" stroke="url(#paint8_linear_8_61)" stroke-width="1.5" stroke-linecap="round" stroke-linejoin="round"/>
<path opacity="0.5" d="M38.5 805L31 812.5V818.5H226.5V768L220.5 788L218.5 783.5L213 788H208L205.5 784.5L203 781.5L202 783.5L200.5 785H198.5L197 788H195L188.5 757L179.5 788H169L161.5 793L156.5 788H152.5L144.5 769.5L135 788L133 793L130 791L128.5 793L126 798H122L120.5 802H114L111 782.5L106 802H99L94 812.5L84.5 796.5L82.5 802H78.5L72 784.5L66.5 802H64L61.5 808L58.5 796.5L49.5 808H47L43.5 812.5L38.5 805Z" fill="url(#paint9_linear_8_61)"/>
<path d="M227.866 759.5C227.481 760.167 226.519 760.167 226.134 759.5L223.536 755C223.151 754.333 223.632 753.5 224.402 753.5L229.598 753.5C230.368 753.5 230.849 754.333 230.464 755L227.866 759.5Z" fill="url(#paint10_linear_8_61)"/>
<g filter="url(#filter1_d_8_61)">
<rect x="190" y="731" width="73" height="25" rx="12.5" fill="url(#paint11_linear_8_61)"/>
</g>
<path d="M203.921 747H204.771V745.535H205.767V744.764H204.771V739.954H203.472L200.381 744.739V745.535H203.921V747ZM201.25 744.764V744.744L203.892 740.706H203.921V744.764H201.25ZM208.989 747.117C210.4 747.117 211.436 746.248 211.436 745.071V745.062C211.436 744.061 210.737 743.421 209.712 743.333V743.313C210.591 743.128 211.206 742.532 211.206 741.663V741.653C211.206 740.584 210.322 739.837 208.979 739.837C207.661 739.837 206.753 740.604 206.641 741.751L206.636 741.8H207.48L207.485 741.751C207.559 741.038 208.149 740.599 208.979 740.599C209.839 740.599 210.322 741.023 210.322 741.761V741.771C210.322 742.474 209.736 742.991 208.896 742.991H208.052V743.733H208.936C209.922 743.733 210.542 744.217 210.542 745.081V745.091C210.542 745.838 209.912 746.355 208.989 746.355C208.052 746.355 207.417 745.877 207.344 745.184L207.339 745.135H206.494L206.499 745.193C206.592 746.307 207.534 747.117 208.989 747.117ZM212.515 747H213.364V743.816C213.364 743.108 213.853 742.576 214.526 742.576C215.156 742.576 215.566 742.981 215.566 743.597V747H216.416V743.772C216.416 743.079 216.89 742.576 217.563 742.576C218.232 742.576 218.618 742.991 218.618 743.689V747H219.468V743.494C219.468 742.483 218.818 741.824 217.812 741.824C217.1 741.824 216.504 742.19 216.221 742.801H216.201C215.981 742.181 215.469 741.824 214.775 741.824C214.121 741.824 213.613 742.161 213.384 742.664H213.364V741.922H212.515V747ZM221.03 741.062C221.328 741.062 221.562 740.823 221.562 740.53C221.562 740.232 221.328 739.998 221.03 739.998C220.737 739.998 220.498 740.232 220.498 740.53C220.498 740.823 220.737 741.062 221.03 741.062ZM220.605 747H221.455V741.922H220.605V747ZM222.612 747H223.462V744.012C223.462 743.147 223.984 742.576 224.785 742.576C225.566 742.576 225.952 743.03 225.952 743.855V747H226.802V743.704C226.802 742.547 226.157 741.824 225.044 741.824C224.272 741.824 223.755 742.171 223.481 742.645H223.462V741.922H222.612V747ZM229.688 747.098C230.82 747.098 231.66 746.473 231.66 745.584V745.579C231.66 744.856 231.289 744.451 230.264 744.202L229.458 744.007C228.896 743.87 228.667 743.631 228.667 743.284V743.279C228.667 742.83 229.048 742.532 229.663 742.532C230.293 742.532 230.669 742.859 230.737 743.353L230.742 743.387H231.553L231.548 743.323C231.484 742.474 230.776 741.824 229.663 741.824C228.564 741.824 227.798 742.444 227.798 743.318V743.323C227.798 744.056 228.262 744.5 229.219 744.729L230.024 744.925C230.601 745.066 230.791 745.271 230.791 745.638V745.643C230.791 746.102 230.381 746.39 229.692 746.39C228.999 746.39 228.623 746.092 228.521 745.584L228.511 745.535H227.661L227.666 745.579C227.769 746.487 228.491 747.098 229.688 747.098ZM236.079 747.098C236.758 747.098 237.368 746.731 237.666 746.175H237.686V747H238.535V743.489C238.535 742.474 237.783 741.824 236.582 741.824C235.386 741.824 234.658 742.498 234.585 743.333L234.58 743.387H235.4L235.41 743.343C235.508 742.889 235.918 742.576 236.572 742.576C237.28 742.576 237.686 742.952 237.686 743.572V743.997L236.23 744.08C235.063 744.148 234.39 744.69 234.39 745.555V745.564C234.39 746.487 235.068 747.098 236.079 747.098ZM235.259 745.564V745.555C235.259 745.081 235.649 744.778 236.328 744.739L237.686 744.656V745.071C237.686 745.809 237.07 746.36 236.27 746.36C235.659 746.36 235.259 746.053 235.259 745.564ZM241.763 748.807C243.14 748.807 244.004 748.035 244.004 746.858V741.922H243.154V742.781H243.135C242.822 742.215 242.256 741.824 241.538 741.824C240.249 741.824 239.365 742.85 239.365 744.427V744.432C239.365 746.019 240.239 747.049 241.519 747.049C242.246 747.049 242.832 746.688 243.135 746.126H243.154V746.775C243.154 747.562 242.646 748.055 241.753 748.055C241.06 748.055 240.576 747.83 240.415 747.464L240.396 747.42H239.541L239.551 747.464C239.717 748.216 240.508 748.807 241.763 748.807ZM241.704 746.297C240.801 746.297 240.234 745.584 240.234 744.432V744.427C240.234 743.299 240.801 742.576 241.704 742.576C242.563 742.576 243.154 743.309 243.154 744.427V744.432C243.154 745.56 242.568 746.297 241.704 746.297ZM247.207 747.098C248.608 747.098 249.556 746.082 249.556 744.461V744.451C249.556 742.83 248.604 741.824 247.202 741.824C245.801 741.824 244.854 742.835 244.854 744.451V744.461C244.854 746.077 245.796 747.098 247.207 747.098ZM247.212 746.346C246.313 746.346 245.723 745.657 245.723 744.461V744.451C245.723 743.265 246.318 742.576 247.202 742.576C248.101 742.576 248.687 743.26 248.687 744.451V744.461C248.687 745.652 248.105 746.346 247.212 746.346Z" fill="white"/>
<circle cx="226.5" cy="768.5" r="1.9" fill="white" stroke="url(#paint12_linear_8_61)" stroke-width="1.2"/>
</g>
<defs>
<filter id="filter0_d_8_61" x="9" y="685" width="359" height="194" filterUnits="userSpaceOnUse" color-interpolation-filters="sRGB">
<feFlood flood-opacity="0" result="BackgroundImageFix"/>
<feColorMatrix in="SourceAlpha" type="matrix" values="0 0 0 0 0 0 0 0 0 0 0 0 0 0 0 0 0 0 127 0" result="hardAlpha"/>
<feOffset dy="10"/>
<feGaussianBlur stdDeviation="11"/>
<feColorMatrix type="matrix" values="0 0 0 0 0.584314 0 0 0 0 0.678431 0 0 0 0 0.996078 0 0 0 0.3 0"/>
<feBlend mode="normal" in2="BackgroundImageFix" result="effect1_dropShadow_8_61"/>
<feBlend mode="normal" in="SourceGraphic" in2="effect1_dropShadow_8_61" result="shape"/>
</filter>
<filter id="filter1_d_8_61" x="168" y="719" width="117" height="69" filterUnits="userSpaceOnUse" color-interpolation-filters="sRGB">
<feFlood flood-opacity="0" result="BackgroundImageFix"/>
<feColorMatrix in="SourceAlpha" type="matrix" values="0 0 0 0 0 0 0 0 0 0 0 0 0 0 0 0 0 0 127 0" result="hardAlpha"/>
<feOffset dy="10"/>
<feGaussianBlur stdDeviation="11"/>
<feColorMatrix type="matrix" values="0 0 0 0 0.772549 0 0 0 0 0.545098 0 0 0 0 0.94902 0 0 0 0.3 0"/>
<feBlend mode="normal" in2="BackgroundImageFix" result="effect1_dropShadow_8_61"/>
<feBlend mode="normal" in="SourceGraphic" in2="effect1_dropShadow_8_61" result="shape"/>
</filter>
<linearGradient id="paint0_linear_8_61" x1="193.5" y1="238" x2="193.5" y2="375" gradientUnits="userSpaceOnUse">
<stop stop-color="#B8EEB2"/>
<stop offset="1" stop-color="#34C759"/>
</linearGradient>
<linearGradient id="paint1_linear_8_61" x1="195.176" y1="621.824" x2="195.176" y2="648.719" gradientUnits="userSpaceOnUse">
<stop stop-color="#BDF2B6"/>
<stop offset="1" stop-color="#73B484"/>
</linearGradient>
<linearGradient id="paint2_linear_8_61" x1="246.546" y1="586.653" x2="246.546" y2="648.72" gradientUnits="userSpaceOnUse">
<stop stop-color="#BDF2B6"/>
<stop offset="1" stop-color="#73B484"/>
</linearGradient>
<linearGradient id="paint3_linear_8_61" x1="300.407" y1="599.251" x2="300.407" y2="648.904" gradientUnits="userSpaceOnUse">
<stop stop-color="#BDF2B6"/>
<stop offset="1" stop-color="#73B484"/>
</linearGradient>
<linearGradient id="paint4_linear_8_61" x1="354.985" y1="578.377" x2="354.985" y2="648.719" gradientUnits="userSpaceOnUse">
<stop stop-color="#BDF2B6"/>
<stop offset="1" stop-color="#73B484"/>
</linearGradient>
<linearGradient id="paint5_linear_8_61" x1="346" y1="847" x2="-65.4781" y2="780.135" gradientUnits="userSpaceOnUse">
<stop stop-color="white"/>
<stop offset="1" stop-color="#B5B5B5"/>
</linearGradient>
<linearGradient id="paint6_linear_8_61" x1="100" y1="761" x2="36.3762" y2="749.512" gradientUnits="userSpaceOnUse">
<stop stop-color="#92A3FD"/>
<stop offset="1" stop-color="#9DCEFF"/>
</linearGradient>
<linearGradient id="paint7_linear_8_61" x1="346" y1="812.5" x2="-8.05173" y2="657.004" gradientUnits="userSpaceOnUse">
<stop stop-color="#92A3FD"/>
<stop offset="1" stop-color="#9DCEFF"/>
</linearGradient>
<linearGradient id="paint8_linear_8_61" x1="226.5" y1="812.5" x2="-17.4931" y2="745.993" gradientUnits="userSpaceOnUse">
<stop stop-color="#92A3FD"/>
<stop offset="1" stop-color="#9DCEFF"/>
</linearGradient>
<linearGradient id="paint9_linear_8_61" x1="128.75" y1="757" x2="128.75" y2="837" gradientUnits="userSpaceOnUse">
<stop stop-color="#93A7FE"/>
<stop offset="1" stop-color="white" stop-opacity="0"/>
</linearGradient>
<linearGradient id="paint10_linear_8_61" x1="222" y1="751" x2="235.328" y2="752.031" gradientUnits="userSpaceOnUse">
<stop stop-color="#BBF1B5"/>
<stop offset="1" stop-color="#77B786"/>
</linearGradient>
<linearGradient id="paint11_linear_8_61" x1="263" y1="756" x2="169.878" y2="734.959" gradientUnits="userSpaceOnUse">
<stop stop-color="#BBF1B5"/>
<stop offset="1" stop-color="#77B786"/>
</linearGradient>
<linearGradient id="paint12_linear_8_61" x1="229" y1="771" x2="222.336" y2="770.484" gradientUnits="userSpaceOnUse">
<stop stop-color="#C58BF2"/>
<stop offset="1" stop-color="#EEA4CE"/>
</linearGradient>
<clipPath id="clip0_8_61">
<rect width="393" height="852" fill="white"/>
</clipPath>
<clipPath id="clip1_8_61">
<rect width="96" height="104" fill="white" transform="translate(146 324)"/>
</clipPath>
</defs>
</svg>
